<?xml version="1.0" encoding="UTF-8"?>
<svg version="1.1" xmlns="http://www.w3.org/2000/svg" width="1024" height="1024">
<path d="M0 0 C337.92 0 675.84 0 1024 0 C1024 337.92 1024 675.84 1024 1024 C686.08 1024 348.16 1024 0 1024 C0 686.08 0 348.16 0 0 Z " fill="#FDFDFD" transform="translate(0,0)"/>
<path d="M0 0 C3.12422886 1.06512702 6.14843178 2.33942448 9.1875 3.625 C18.42775007 7.42335358 27.75591964 10.81039012 37.20703125 14.04199219 C40.27649601 15.09484007 43.34160545 16.15976738 46.40625 17.2265625 C52.93294015 19.49769039 59.46547619 21.75152681 66 24 C67.20124512 24.41548096 67.20124512 24.41548096 68.42675781 24.83935547 C88.40526017 31.73359842 108.6869735 37.80205624 129.1875 42.9375 C130.31397949 43.21972412 131.44045898 43.50194824 132.60107422 43.79272461 C138.68986591 45.28409032 144.74634062 46.53976633 150.9465332 47.47485352 C151.62417725 47.64815186 152.30182129 47.8214502 153 48 C153.33 48.66 153.66 49.32 154 50 C145.8841678 52.57297884 137.76219916 54.89568855 129.5078125 56.97265625 C125.34180886 58.11678393 125.34180886 58.11678393 119 61 C128.24 64.96 137.48 68.92 147 73 C145.89973587 76.3007924 145.17290663 76.92480282 142.5625 79.0625 C139.20841985 81.90056782 136.08310425 84.86924344 133 88 C129.55223317 91.48433405 126.04086066 94.78212816 122.31640625 97.96484375 C119.83123066 100.14827796 117.42099342 102.39946232 115.00976562 104.66381836 C109.36155767 109.96771568 103.62877512 115.04302812 97.578125 119.890625 C94.9757371 122.01985146 92.48424498 124.23449357 90 126.5 C85.73058373 130.38557285 81.32672932 134.06036421 76.83984375 137.69140625 C73.93023009 140.05671804 71.05776611 142.46214681 68.1875 144.875 C63.27506327 148.98034816 58.27179934 152.94997397 53.22265625 156.88525391 C49.31758713 159.93824904 45.48213291 163.06099732 41.6875 166.25 C31.76511449 174.56863595 21.38064133 182.26734383 11 190 C10.23268555 190.57234375 9.46537109 191.1446875 8.67480469 191.734375 C-2.05966302 199.7310448 -12.90203165 207.51625139 -24 215 C-24.70979004 215.48178711 -25.41958008 215.96357422 -26.15087891 216.45996094 C-36.55543549 223.51880158 -47.11458064 230.25678046 -57.89208984 236.73144531 C-59.87657221 237.92572032 -61.85515219 239.12913077 -63.83203125 240.3359375 C-136.44302064 284.53393104 -136.44302064 284.53393104 -158 281 C-160.34904062 278.24990366 -161.51718547 276.23937943 -163 273 C-163.53238281 271.85789062 -164.06476563 270.71578125 -164.61328125 269.5390625 C-166.17924313 266.10248717 -167.65219902 262.63167501 -169.1015625 259.14453125 C-169.94206967 257.13827719 -170.81244776 255.1476072 -171.6875 253.15625 C-197.21584186 193.29106493 -197.54151778 123.86577366 -197 60 C-196.2471875 59.82460693 -195.494375 59.64921387 -194.71875 59.46850586 C-179.65216114 55.94070248 -164.71546126 52.1866943 -149.88671875 47.74609375 C-144.84330419 46.2361852 -139.77827892 44.81980131 -134.7019043 43.42529297 C-122.07888273 39.95614621 -109.61815271 36.08406196 -97.17529297 32.01977539 C-94.31895759 31.10243625 -91.45429636 30.21715312 -88.58558655 29.33946228 C-77.61689266 25.96938149 -66.80896417 22.15980811 -56 18.3125 C-54.51879166 17.78666824 -54.51879166 17.78666824 -53.00765991 17.25021362 C-2.7151867 -0.63575732 -2.7151867 -0.63575732 0 0 Z " fill="#013F78" transform="translate(514,199)"/>
<path d="M0 0 C0.66 0 1.32 0 2 0 C2.38671875 0.96679688 2.7734375 1.93359375 3.171875 2.9296875 C3.42243652 3.55464111 3.67299805 4.17959473 3.93115234 4.82348633 C4.48238748 6.2045325 5.02951513 7.58722446 5.57275391 8.97143555 C6.72759251 11.9015568 7.88480746 14.76856772 9.2890625 17.58984375 C13.25412911 25.70539375 12.41528243 34.22696126 12 43 C11.96664551 43.93392578 11.93329102 44.86785156 11.89892578 45.83007812 C10.83112881 73.67529002 5.77731571 102.24065263 -2 129 C-2.20334961 129.71043457 -2.40669922 130.42086914 -2.61621094 131.15283203 C-4.84173574 138.84495402 -7.36905874 146.3444014 -10.56640625 153.6953125 C-11.6713299 156.24235722 -12.73572861 158.79430436 -13.77734375 161.3671875 C-27.58627568 195.27927412 -48.1522002 224.19335912 -74 250 C-74.99436768 251.01606848 -75.9878027 252.03305026 -76.98046875 253.05078125 C-83.32826729 259.52979788 -89.71760333 265.5646577 -97 271 C-97.65178223 271.49580566 -98.30356445 271.99161133 -98.97509766 272.50244141 C-160.03733448 318.93250255 -160.03733448 318.93250255 -179.984375 317.8359375 C-183.45376599 316.87421513 -186.71743582 315.64833581 -190 314.1875 C-190.68151123 313.88545654 -191.36302246 313.58341309 -192.06518555 313.2722168 C-220.5219892 300.33270543 -247.65999161 282.79742431 -271 262 C-271.49661133 261.55978516 -271.99322266 261.11957031 -272.50488281 260.66601562 C-284.20987344 250.24636835 -295.38884622 239.40854651 -305 227 C-305.53222168 226.32291992 -306.06444336 225.64583984 -306.61279297 224.94824219 C-308.39553792 222.67983414 -310.16802996 220.40377474 -311.9375 218.125 C-312.50597656 217.39893555 -313.07445312 216.67287109 -313.66015625 215.92480469 C-316.35827661 212.41366376 -318.66340213 209.28720072 -320 205 C-321.24136719 205.01160156 -322.48273438 205.02320313 -323.76171875 205.03515625 C-325.40364432 205.04453868 -327.04557153 205.0536384 -328.6875 205.0625 C-329.50412109 205.07087891 -330.32074219 205.07925781 -331.16210938 205.08789062 C-335.24499084 205.10442051 -339.01651707 205.03035098 -343 204 C-341.68 203.67 -340.36 203.34 -339 203 C-339 202.01 -339 201.02 -339 200 C-338.09765625 199.99742187 -337.1953125 199.99484375 -336.265625 199.9921875 C-317.56481798 199.58054213 -299.07730461 194.84221337 -281.3125 189.25 C-279.91414917 188.80986572 -279.91414917 188.80986572 -278.48754883 188.36083984 C-275.19655073 187.30064467 -275.19655073 187.30064467 -272 186 C-271.67 185.34 -271.34 184.68 -271 184 C-269.20581055 183.14624023 -269.20581055 183.14624023 -266.88671875 182.30859375 C-266.05076172 182.00373047 -265.21480469 181.69886719 -264.35351562 181.38476562 C-263.47373047 181.07216797 -262.59394531 180.75957031 -261.6875 180.4375 C-260.81931641 180.12103516 -259.95113281 179.80457031 -259.05664062 179.47851562 C-255.39398373 178.15456214 -251.79547273 176.8894038 -248 176 C-248 175.34 -248 174.68 -248 174 C-246.97519531 173.60167969 -245.95039063 173.20335937 -244.89453125 172.79296875 C-243.53376242 172.25804583 -242.17309043 171.72287651 -240.8125 171.1875 C-240.13896484 170.92646484 -239.46542969 170.66542969 -238.77148438 170.39648438 C-234.93878473 168.88210061 -231.51774735 167.16948182 -228 165 C-226.783125 164.566875 -225.56625 164.13375 -224.3125 163.6875 C-220.12800273 162.18357454 -216.58952138 160.00512355 -212.82421875 157.6640625 C-209.68203059 155.81264873 -206.46730536 154.21940039 -203.1875 152.625 C-196.16702732 149.1988183 -189.60732752 145.16586025 -183 141 C-181.29483506 139.97388305 -179.58671641 138.95265043 -177.875 137.9375 C-162.57585124 128.77267446 -147.74583003 118.79688483 -133.2890625 108.359375 C-130.07958599 106.04552232 -126.82502881 103.80102342 -123.5625 101.5625 C-112.67735715 94.04593898 -102.09171012 86.16753347 -91.73046875 77.9453125 C-89.04151675 75.81362237 -86.33318499 73.70923941 -83.61328125 71.6171875 C-75.26888112 65.19322521 -67.10654774 58.64072673 -59.16015625 51.73046875 C-56.31940098 49.26207463 -53.42345681 46.87025537 -50.5 44.5 C-40.61411098 36.45773492 -31.02739831 28.10840926 -21.671875 19.45703125 C-18.82909193 16.84283454 -15.93674544 14.29592447 -13.01953125 11.765625 C-6.37696182 6.02600946 -6.37696182 6.02600946 0 0 Z " fill="#03346A" transform="translate(690,300)"/>
<path d="M0 0 C0.33 0 0.66 0 1 0 C1.23202641 8.70693981 0.59473101 17.06912203 -0.625 25.6875 C-0.89014404 27.57456665 -0.89014404 27.57456665 -1.16064453 29.49975586 C-2.98964044 41.87855582 -5.72801795 53.93002178 -9 66 C-9.35167236 67.31919434 -9.35167236 67.31919434 -9.71044922 68.66503906 C-14.92208808 87.95950445 -22.58227259 106.38786029 -32 124 C-32.35030273 124.66193359 -32.70060547 125.32386719 -33.06152344 126.00585938 C-40.59036116 140.14356902 -49.5900371 152.82406125 -60 165 C-60.99 166.15822266 -60.99 166.15822266 -62 167.33984375 C-72.37445299 179.14864346 -83.51765543 190.42598753 -96 200 C-97.02480469 200.80695313 -98.04960938 201.61390625 -99.10546875 202.4453125 C-115.9697167 215.67655735 -133.91611807 227.10262531 -153.0625 236.75 C-153.91336182 237.18046631 -154.76422363 237.61093262 -155.64086914 238.05444336 C-156.43098389 238.4438208 -157.22109863 238.83319824 -158.03515625 239.234375 C-158.7300415 239.57694336 -159.42492676 239.91951172 -160.14086914 240.27246094 C-162 241 -162 241 -165 241 C-165 241.66 -165 242.32 -165 243 C-169.00225317 242.38353163 -172.13536305 241.10770326 -175.73828125 239.27734375 C-177.33833008 238.47006836 -177.33833008 238.47006836 -178.97070312 237.64648438 C-180.07349609 237.08251953 -181.17628906 236.51855469 -182.3125 235.9375 C-183.43462891 235.36966797 -184.55675781 234.80183594 -185.71289062 234.21679688 C-188.47804408 232.81657023 -191.24023716 231.41081335 -194 230 C-194 229.34 -194 228.68 -194 228 C-194.67160156 227.92652344 -195.34320313 227.85304688 -196.03515625 227.77734375 C-199.96098417 226.74804236 -203.06286245 224.73805467 -206.4375 222.5625 C-207.49094604 221.89250977 -207.49094604 221.89250977 -208.56567383 221.20898438 C-215.55840415 216.71877457 -222.32489547 211.94697251 -229 207 C-229.5475293 206.59813477 -230.09505859 206.19626953 -230.65917969 205.78222656 C-239.31430485 199.40773972 -247.26970217 192.46365922 -255 185 C-255.60054199 184.42137207 -256.20108398 183.84274414 -256.81982422 183.24658203 C-263.73188684 176.55182292 -270.4414094 169.89904979 -276 162 C-275.505 161.01 -275.505 161.01 -275 160 C-267.1726585 163.58816235 -261.67080471 167.98405585 -255.75 174.19921875 C-252.28861411 177.72452227 -248.56957455 180.77651069 -244.703125 183.84375 C-242.99737658 185.20440481 -241.31601792 186.59676289 -239.671875 188.03125 C-224.539978 201.11301902 -187.7159634 231 -166.1875 231 C-161.52022339 229.53575636 -157.30338657 227.30477818 -153 225 C-154.65 225.33 -156.3 225.66 -158 226 C-158 183.1 -158 140.2 -158 96 C-158.66 96 -159.32 96 -160 96 C-160 95.34 -160 94.68 -160 94 C-158.12109375 92.625 -158.12109375 92.625 -155.4375 91 C-150.71427294 88.07841625 -146.05555817 85.08532548 -141.4375 82 C-140.7966748 81.57315918 -140.15584961 81.14631836 -139.49560547 80.70654297 C-135.0770577 77.75218286 -130.72887917 74.71288013 -126.44140625 71.5703125 C-124.40162863 70.25832753 -122.46832189 69.24926903 -120.28515625 68.21875 C-115.39338397 65.82326808 -111.20240381 62.65768937 -106.875 59.375 C-105.20370163 58.12553041 -103.53182153 56.87683858 -101.859375 55.62890625 C-101.04017578 55.01547363 -100.22097656 54.40204102 -99.37695312 53.77001953 C-95.98694818 51.24562185 -92.56367235 48.77003197 -89.125 46.3125 C-87.52011719 45.16201172 -87.52011719 45.16201172 -85.8828125 43.98828125 C-83.30777272 42.21227143 -80.70358279 40.57127044 -78 39 C-70.56014461 50.41393964 -64.28526423 62.4610384 -57.88183594 74.47460938 C-54.77014817 80.30397774 -51.63432513 86.1202767 -48.5 91.9375 C-47.93716309 92.98381592 -47.37432617 94.03013184 -46.79443359 95.1081543 C-43.21942582 101.75148842 -39.6197385 108.38093314 -36 115 C-33.24607222 111.44245911 -31.18128993 107.70835793 -29.1875 103.6875 C-28.8363916 102.98036865 -28.4852832 102.2732373 -28.12353516 101.54467773 C-24.68321621 94.51136296 -21.74628899 87.32900788 -19 80 C-18.75008301 79.3498291 -18.50016602 78.6996582 -18.24267578 78.02978516 C-13.7307486 66.25070831 -10.67392331 54.31484362 -8 42 C-7.78456543 41.01483398 -7.56913086 40.02966797 -7.34716797 39.01464844 C-4.53313351 26.06470619 -2.03374459 13.095331 0 0 Z " fill="#024173" transform="translate(678,352)"/>
<path d="M0 0 C2.85853975 2.51744571 4.40347494 5.31501239 6.1796875 8.6640625 C6.77910156 9.78683594 7.37851562 10.90960938 7.99609375 12.06640625 C8.62260208 13.25249524 9.24890298 14.43869383 9.875 15.625 C11.10104427 17.92996323 12.32759751 20.23465581 13.5546875 22.5390625 C14.14612549 23.6520874 14.73756348 24.7651123 15.34692383 25.91186523 C17.11732589 29.21917814 18.93032107 32.49966453 20.76171875 35.7734375 C23.23602507 40.22250565 25.64283725 44.70855761 28.0625 49.1875 C31.38039678 55.32551467 34.69942451 61.46257382 38.05859375 67.578125 C44.10858915 78.59818763 50.00520224 89.68263701 55.72460938 100.87866211 C56.49708008 102.3811853 56.49708008 102.3811853 57.28515625 103.9140625 C57.73769775 104.8004541 58.19023926 105.6868457 58.65649414 106.60009766 C59.94669682 109.03611932 59.94669682 109.03611932 61.66967773 111.19287109 C63 113 63 113 63 115 C61.3828125 116.4453125 61.3828125 116.4453125 59.125 118.125 C58.3 118.74890625 57.475 119.3728125 56.625 120.015625 C55.75875 120.67046875 54.8925 121.3253125 54 122 C46.92712425 127.5766905 39.96300728 133.28725646 33 139 C30.93801828 140.68813434 28.87523632 142.37528748 26.8125 144.0625 C25.89082031 144.81660156 24.96914063 145.57070313 24.01953125 146.34765625 C23.35308594 146.89292969 22.68664062 147.43820312 22 148 C19.8161648 145.97102302 18.35730024 144.09909338 17.00708008 141.4465332 C16.64693314 140.74603348 16.28678619 140.04553375 15.91572571 139.32380676 C15.53748154 138.57370834 15.15923737 137.82360992 14.76953125 137.05078125 C14.37424728 136.27816452 13.97896332 135.50554779 13.57170105 134.70951843 C12.31318856 132.24657934 11.06276208 129.7796358 9.8125 127.3125 C8.95951457 125.6397035 8.10600502 123.96717414 7.25195312 122.29492188 C5.16187924 118.19968716 3.07904681 114.10084313 1 110 C-5.45910762 121.44434889 -11.67819748 133.00421674 -17.8125 144.625 C-20.87330711 150.41756178 -23.93565155 156.20931086 -27 162 C-27.33269897 162.62886108 -27.66539795 163.25772217 -28.00817871 163.90563965 C-30.05728969 167.77618262 -32.1190865 171.63974344 -34.1875 175.5 C-34.67903564 176.42893066 -35.17057129 177.35786133 -35.67700195 178.31494141 C-45.10138857 195.82358652 -45.10138857 195.82358652 -52 198 C-52 198.66 -52 199.32 -52 200 C-53.10988281 200.40992188 -53.10988281 200.40992188 -54.2421875 200.828125 C-56.82598648 201.92605658 -58.84192415 203.1353532 -61.125 204.75 C-74.70381773 214 -74.70381773 214 -80 214 C-80.33 214.99 -80.66 215.98 -81 217 C-83.046875 218.40698242 -83.046875 218.40698242 -85.75 219.85546875 C-86.74346436 220.39204102 -87.73692871 220.92861328 -88.76049805 221.48144531 C-89.82953369 222.04444336 -90.89856934 222.60744141 -92 223.1875 C-93.0825708 223.76467773 -94.1651416 224.34185547 -95.28051758 224.93652344 C-101.69082218 228.32868049 -108.13760197 231.63525476 -114.6875 234.75 C-115.69973633 235.23376099 -115.69973633 235.23376099 -116.73242188 235.72729492 C-120.12724694 237.2997953 -123.29080265 238.46099618 -127 239 C-125.442569 234.8460326 -123.48007915 230.96534855 -121.39453125 227.05859375 C-121.03857376 226.38706268 -120.68261627 225.71553162 -120.31587219 225.02365112 C-119.1505668 222.82693754 -117.98158074 220.63220634 -116.8125 218.4375 C-115.99770714 216.90333291 -115.18309327 215.36907075 -114.36865234 213.8347168 C-108.6993423 203.16136005 -102.99132305 192.5088924 -97.27148438 181.86254883 C-93.39864639 174.64370806 -89.5849012 167.39677123 -85.8125 160.125 C-81.59241323 151.99308597 -77.26080098 143.93119506 -72.85083008 135.90087891 C-67.94547215 126.94806845 -63.16900123 117.92846114 -58.39163208 108.90698242 C-53.9000459 100.42752312 -49.3721477 91.97178658 -44.75 83.5625 C-39.92798096 74.78830341 -35.30304107 65.92023608 -30.70947266 57.0246582 C-27.24966809 50.34478111 -23.67036207 43.7523409 -19.96850586 37.2043457 C-15.04767846 28.42291367 -10.49900172 19.44250816 -5.91259766 10.48339844 C-5.59473801 9.86394852 -5.27687836 9.2444986 -4.9493866 8.60627747 C-4.07511775 6.90173752 -3.20337892 5.1959006 -2.33178711 3.48999023 C-1 1 -1 1 0 0 Z " fill="#E5E5E6" transform="translate(509,223)"/>
<path d="M0 0 C1.0623674 12.67758429 -3.28192092 22.98480479 -8.03515625 34.4765625 C-9.54483678 38.42495773 -10.70317719 42.47172099 -11.875 46.53125 C-12.74664718 49.21882881 -13.69868141 51.74439645 -14.77734375 54.34765625 C-16.61676818 58.87081711 -18.18299982 63.44897229 -19.69140625 68.08984375 C-20.04191544 69.16505783 -20.04191544 69.16505783 -20.39950562 70.26199341 C-21.37034022 73.24735224 -22.33745456 76.23381034 -23.29370117 79.22387695 C-24.00153414 81.43190741 -24.72059709 83.63602105 -25.44140625 85.83984375 C-25.65398575 86.51482407 -25.86656525 87.18980438 -26.08558655 87.88523865 C-27.19973871 91.26486334 -28.1561279 93.76645425 -31 96 C-34.47338758 90.46717022 -37.0192354 84.72021975 -39.3125 78.625 C-39.57885254 77.92310547 -39.84520508 77.22121094 -40.11962891 76.49804688 C-41.2107684 73.53198155 -42 71.185617 -42 68 C-46.55463859 71.94126319 -51.04991029 75.94092236 -55.5 80 C-59.95290419 84.05749603 -64.44723633 88.0552849 -69 92 C-70.12378803 92.97776102 -71.24747659 93.95563638 -72.37109375 94.93359375 C-83.21116299 104.35931089 -94.11652268 113.69326809 -105.26171875 122.7578125 C-108.15421156 125.12627309 -111.01445037 127.5305893 -113.875 129.9375 C-119.58811065 134.70702592 -125.44823379 139.25526706 -131.37207031 143.75878906 C-134.02891875 145.78449654 -136.66896228 147.83196961 -139.3125 149.875 C-160.15225227 165.90411022 -160.15225227 165.90411022 -170.7578125 172.81640625 C-174.83564488 175.56280179 -178.78476698 178.46947739 -182.75 181.375 C-189.18170825 186.07446915 -195.72591568 190.45833646 -202.52246094 194.6105957 C-206.11698224 196.80870049 -209.59131893 199.07984396 -213 201.5625 C-217.7169406 204.93625818 -222.69106313 207.72156233 -227.76123047 210.51928711 C-232.45468455 213.11205527 -237.05289327 215.82465194 -241.625 218.625 C-247.58964043 222.2625717 -253.68576751 225.45676894 -259.9765625 228.4921875 C-262.98286322 229.94146724 -262.98286322 229.94146724 -265.671875 231.609375 C-268.23829166 233.14233528 -270.87483313 234.10738829 -273.68359375 235.109375 C-277.34046544 236.51538975 -280.85276627 238.22635726 -284.38671875 239.9140625 C-286.93517788 240.97306345 -289.28285647 241.55938213 -292 242 C-292 242.66 -292 243.32 -292 244 C-294.37316638 244.94926655 -296.74653128 245.89797832 -299.12109375 246.84375 C-301.01348607 247.60378816 -302.90169698 248.37433704 -304.78515625 249.15625 C-305.66042969 249.5171875 -306.53570312 249.878125 -307.4375 250.25 C-308.24058594 250.58515625 -309.04367187 250.9203125 -309.87109375 251.265625 C-312 252 -312 252 -315 252 C-315.33 252.99 -315.66 253.98 -316 255 C-318.11938477 255.99560547 -318.11938477 255.99560547 -320.94140625 256.8671875 C-321.98820557 257.19332031 -323.03500488 257.51945312 -324.11352539 257.85546875 C-325.25168701 258.19191406 -326.38984863 258.52835937 -327.5625 258.875 C-328.72966553 259.22433594 -329.89683105 259.57367188 -331.09936523 259.93359375 C-348.2866254 264.96050505 -365.00655241 269.10014286 -383 268 C-382.67 269.65 -382.34 271.3 -382 273 C-394.90873888 272.74823382 -406.36912564 268.87058769 -415.4921875 259.4609375 C-423.39338288 250.3441736 -423.64704499 241.84231862 -423.17480469 230.26074219 C-422.37161142 219.87307507 -417.13713201 210.81681927 -412 202 C-411 204 -411 204 -411.5234375 205.91796875 C-411.80445313 206.66691406 -412.08546875 207.41585937 -412.375 208.1875 C-416.6121236 220.3571381 -415.90355902 232.14172003 -411 244 C-407.99249692 249.35128134 -402.96505519 252.70667728 -397.1796875 254.59375 C-366.18729219 260.37011042 -332.2032122 242.35929964 -305.8203125 228.05078125 C-302.54612772 226.27746721 -299.22701514 224.62237533 -295.875 223 C-289.38559762 219.78175018 -283.23323272 216.04852891 -277.06542969 212.26367188 C-274.90594298 210.942454 -272.73889065 209.63436112 -270.5703125 208.328125 C-239.48875796 189.55837704 -209.38634307 168.39924065 -180.9609375 145.8046875 C-180.31543945 145.29180176 -179.66994141 144.77891602 -179.00488281 144.25048828 C-177.7789595 143.27197858 -176.55675482 142.28878624 -175.33886719 141.30029297 C-171.21686862 138 -171.21686862 138 -169 138 C-169 137.34 -169 136.68 -169 136 C-167.07412421 134.36860063 -165.15673283 132.86276775 -163.125 131.375 C-162.56941406 130.95476562 -162.01382812 130.53453125 -161.44140625 130.1015625 C-157.26235288 127 -157.26235288 127 -155 127 C-155 126.34 -155 125.68 -155 125 C-153.5390625 123.7109375 -153.5390625 123.7109375 -151.625 122.375 C-150.99851562 121.92898438 -150.37203125 121.48296875 -149.7265625 121.0234375 C-148 120 -148 120 -146 120 C-145.74089844 119.39414062 -145.48179687 118.78828125 -145.21484375 118.1640625 C-143.88205855 115.78990494 -142.79565757 114.88853299 -140.5625 113.375 C-137.04347427 110.85324329 -133.86745958 108.12600134 -130.6875 105.1875 C-126.19086464 101.03819096 -121.55143162 97.1500004 -116.78515625 93.31640625 C-112.78288747 89.98773109 -109.00203237 86.44094012 -105.21484375 82.87109375 C-103 81 -103 81 -101 81 C-100.67 80.01 -100.34 79.02 -100 78 C-98.6796875 76.66796875 -98.6796875 76.66796875 -96.875 75.1875 C-87.7795292 67.46369804 -79.12445662 59.18480052 -70.625 50.8125 C-69.75101563 49.95269531 -68.87703125 49.09289062 -67.9765625 48.20703125 C-65.80453521 46.07583615 -65.80453521 46.07583615 -65 43 C-65.67506592 42.8956665 -66.35013184 42.79133301 -67.0456543 42.68383789 C-70.63061305 41.85403296 -73.89931765 40.50115725 -77.26953125 39.05859375 C-77.95053391 38.77146011 -78.63153656 38.48432648 -79.33317566 38.18849182 C-81.4948362 37.27587966 -83.65367581 36.3567987 -85.8125 35.4375 C-87.28302128 34.81532525 -88.75372259 34.1935758 -90.22460938 33.57226562 C-93.81850919 32.05309327 -97.40989431 30.52811577 -101 29 C-101 28.67 -101 28.34 -101 28 C-87.635 28.495 -87.635 28.495 -74 29 C-74 28.34 -74 27.68 -74 27 C-71.89748139 26.32815382 -69.79292237 25.66269032 -67.6875 25 C-65.92986328 24.443125 -65.92986328 24.443125 -64.13671875 23.875 C-61 23 -61 23 -58 23 C-57.855625 22.05125 -57.71125 21.1025 -57.5625 20.125 C-57 17 -57 17 -56 15 C-54.10839844 14.2097168 -54.10839844 14.2097168 -51.609375 13.44921875 C-50.218396 13.02334473 -50.218396 13.02334473 -48.79931641 12.58886719 C-47.79304199 12.29141602 -46.78676758 11.99396484 -45.75 11.6875 C-44.20771729 11.2239209 -44.20771729 11.2239209 -42.63427734 10.75097656 C-34.84881897 8.45026692 -27.0164684 6.45024108 -19.09277344 4.6862793 C-14.24302733 3.5966952 -9.599901 2.26869302 -4.92333984 0.57714844 C-3 0 -3 0 0 0 Z " fill="#E2AF24" transform="translate(734,232)"/>
<path d="M0 0 C0.33 0 0.66 0 1 0 C1.23202641 8.70693981 0.59473101 17.06912203 -0.625 25.6875 C-0.89014404 27.57456665 -0.89014404 27.57456665 -1.16064453 29.49975586 C-2.98964044 41.87855582 -5.72801795 53.93002178 -9 66 C-9.35167236 67.31919434 -9.35167236 67.31919434 -9.71044922 68.66503906 C-14.92208808 87.95950445 -22.58227259 106.38786029 -32 124 C-32.35030273 124.66193359 -32.70060547 125.32386719 -33.06152344 126.00585938 C-40.59036116 140.14356902 -49.5900371 152.82406125 -60 165 C-60.99 166.15822266 -60.99 166.15822266 -62 167.33984375 C-72.37445299 179.14864346 -83.51765543 190.42598753 -96 200 C-97.02480469 200.80695313 -98.04960938 201.61390625 -99.10546875 202.4453125 C-115.9697167 215.67655735 -133.91611807 227.10262531 -153.0625 236.75 C-153.91336182 237.18046631 -154.76422363 237.61093262 -155.64086914 238.05444336 C-156.43098389 238.4438208 -157.22109863 238.83319824 -158.03515625 239.234375 C-158.7300415 239.57694336 -159.42492676 239.91951172 -160.14086914 240.27246094 C-162 241 -162 241 -165 241 C-165 241.66 -165 242.32 -165 243 C-169.00225317 242.38353163 -172.13536305 241.10770326 -175.73828125 239.27734375 C-177.33833008 238.47006836 -177.33833008 238.47006836 -178.97070312 237.64648438 C-180.07349609 237.08251953 -181.17628906 236.51855469 -182.3125 235.9375 C-183.43462891 235.36966797 -184.55675781 234.80183594 -185.71289062 234.21679688 C-188.47804408 232.81657023 -191.24023716 231.41081335 -194 230 C-194 229.34 -194 228.68 -194 228 C-194.67160156 227.92652344 -195.34320313 227.85304688 -196.03515625 227.77734375 C-199.96098417 226.74804236 -203.06286245 224.73805467 -206.4375 222.5625 C-207.49094604 221.89250977 -207.49094604 221.89250977 -208.56567383 221.20898438 C-215.55840415 216.71877457 -222.32489547 211.94697251 -229 207 C-229.5475293 206.59813477 -230.09505859 206.19626953 -230.65917969 205.78222656 C-239.31430485 199.40773972 -247.26970217 192.46365922 -255 185 C-255.60054199 184.42137207 -256.20108398 183.84274414 -256.81982422 183.24658203 C-263.73188684 176.55182292 -270.4414094 169.89904979 -276 162 C-275.505 161.01 -275.505 161.01 -275 160 C-267.1726585 163.58816235 -261.67080471 167.98405585 -255.75 174.19921875 C-252.28861411 177.72452227 -248.56957455 180.77651069 -244.703125 183.84375 C-242.99737658 185.20440481 -241.31601792 186.59676289 -239.671875 188.03125 C-221.00263194 204.17111175 -198.06128447 217.00326343 -176 228 C-175.3915625 228.31614258 -174.783125 228.63228516 -174.15625 228.95800781 C-169.9817073 230.9789076 -167.43220821 231.32851719 -163 230 C-160.47014621 228.90055135 -158.06493386 227.76903131 -155.625 226.5 C-154.92947021 226.14397705 -154.23394043 225.7879541 -153.51733398 225.42114258 C-129.69892203 213.1219761 -107.1447069 198.73417301 -87 181 C-85.60201172 179.77023437 -85.60201172 179.77023437 -84.17578125 178.515625 C-81.76257775 176.36574565 -79.37741888 174.18927782 -77 172 C-76.34515625 171.4225 -75.6903125 170.845 -75.015625 170.25 C-73.12832654 168.58002289 -73.12832654 168.58002289 -71 166 C-71.36061638 162.80145337 -72.81876413 160.17609943 -74.30078125 157.3515625 C-74.77692871 156.44043701 -75.25307617 155.52931152 -75.74365234 154.59057617 C-76.26137207 153.61193604 -76.7790918 152.6332959 -77.3125 151.625 C-77.85084473 150.60059814 -78.38918945 149.57619629 -78.94384766 148.52075195 C-83.49839295 139.88302698 -88.16332745 131.30746086 -92.859375 122.74609375 C-96.9198708 115.3358179 -100.90652178 107.8858925 -104.90063477 100.43969727 C-108.870674 93.05374579 -112.90514135 85.70751038 -117.06884766 78.42871094 C-118.83483302 75.30281836 -120.23875578 72.50584343 -121 69 C-120.35417969 68.58492188 -119.70835937 68.16984375 -119.04296875 67.7421875 C-109.83072806 61.71831466 -101.02544049 55.18540835 -92.19238281 48.62402344 C-87.81832345 45.38390731 -83.40995747 42.19102541 -79 39 C-76.10513126 41.560507 -74.44884172 44.45765139 -72.5625 47.8125 C-72.22105957 48.41868164 -71.87961914 49.02486328 -71.52783203 49.64941406 C-63.12857273 64.62987917 -55.02478493 79.77714059 -46.89599609 94.90527344 C-43.28891304 101.61725424 -39.65711252 108.31514236 -36 115 C-33.24607222 111.44245911 -31.18128993 107.70835793 -29.1875 103.6875 C-28.8363916 102.98036865 -28.4852832 102.2732373 -28.12353516 101.54467773 C-24.68321621 94.51136296 -21.74628899 87.32900788 -19 80 C-18.75008301 79.3498291 -18.50016602 78.6996582 -18.24267578 78.02978516 C-13.7307486 66.25070831 -10.67392331 54.31484362 -8 42 C-7.78456543 41.01483398 -7.56913086 40.02966797 -7.34716797 39.01464844 C-4.53313351 26.06470619 -2.03374459 13.095331 0 0 Z " fill="#DADBDC" transform="translate(678,352)"/>
<path d="M0 0 C11.653125 -0.04125 23.30625 -0.0825 35.3125 -0.125 C38.97126221 -0.14320801 42.63002441 -0.16141602 46.3996582 -0.18017578 C50.92028809 -0.18920898 50.92028809 -0.18920898 53.04679871 -0.19088745 C54.50966108 -0.19392798 55.97251892 -0.2008973 57.43534851 -0.21115112 C82.51864808 -0.37795137 82.51864808 -0.37795137 93 8 C99.79082838 14.91658446 102.2721684 21.57434719 102.375 31.3125 C102.23428409 40.22157619 100.16444492 47.80498696 93.94140625 54.40234375 C79.71474599 66.10999777 60.95544226 64.26888821 43.6875 64.125 C41.5787803 64.11494844 39.47005595 64.10582645 37.36132812 64.09765625 C32.2406745 64.0775358 27.12067783 64.03835714 22 64 C22 73.9 22 83.8 22 94 C14.74 94 7.48 94 0 94 C0 62.98 0 31.96 0 0 Z " fill="#032050" transform="translate(452,665)"/>
<path d="M0 0 C8.25 0 16.5 0 25 0 C30.73513608 9.86443405 36.18800647 19.86100593 41.58251953 29.91552734 C45.36140681 36.95868307 49.16436683 43.98759958 53 51 C54.46515795 53.68454746 55.929528 56.36952294 57.39355469 59.0546875 C58.54433181 61.16456214 59.69614346 63.27387265 60.84863281 65.3828125 C62.78012577 68.91860896 64.7026416 72.45922899 66.625 76 C67.22957031 77.10472656 67.83414063 78.20945312 68.45703125 79.34765625 C69.02035156 80.38792969 69.58367187 81.42820312 70.1640625 82.5 C70.66373535 83.4178125 71.1634082 84.335625 71.67822266 85.28125 C73 88 73 88 75 94 C67.08 94 59.16 94 51 94 C47.7 87.73 44.4 81.46 41 75 C11.795 74.505 11.795 74.505 -18 74 C-18.66 75.98 -19.32 77.96 -20 80 C-20.96142578 81.96630859 -20.96142578 81.96630859 -21.9453125 83.6484375 C-22.26516113 84.20192871 -22.58500977 84.75541992 -22.91455078 85.32568359 C-23.31399902 86.00195801 -23.71344727 86.67823242 -24.125 87.375 C-25.40375 89.56125 -26.6825 91.7475 -28 94 C-35.92 94 -43.84 94 -52 94 C-49.78901589 88.47253973 -47.08981325 83.4102073 -44.25 78.1875 C-43.67362793 77.1250708 -43.09725586 76.0626416 -42.50341797 74.96801758 C-37.95198385 66.63150613 -33.20775146 58.42055505 -28.38720703 50.23754883 C-22.54100034 40.28733419 -16.96098863 30.19715501 -11.37890625 20.09765625 C-7.65298773 13.35863069 -3.84577015 6.67123394 0 0 Z " fill="#021D4D" transform="translate(746,665)"/>
<path d="M0 0 C8.25 0 16.5 0 25 0 C32.44238869 13.00279403 39.68981451 26.0678579 46.6875 39.3125 C52.26954088 49.87636892 57.91964974 60.3885728 63.77148438 70.80615234 C66.2404192 75.21510472 68.68313101 79.63851833 71.125 84.0625 C71.61145996 84.93938477 72.09791992 85.81626953 72.59912109 86.71972656 C73.04336426 87.52506836 73.48760742 88.33041016 73.9453125 89.16015625 C74.34250488 89.87824463 74.73969727 90.59633301 75.14892578 91.33618164 C76 93 76 93 76 94 C67.75 94 59.5 94 51 94 C47.7 87.73 44.4 81.46 41 75 C11.795 74.505 11.795 74.505 -18 74 C-18.66 75.98 -19.32 77.96 -20 80 C-20.96142578 81.96630859 -20.96142578 81.96630859 -21.9453125 83.6484375 C-22.26516113 84.20192871 -22.58500977 84.75541992 -22.91455078 85.32568359 C-23.31399902 86.00195801 -23.71344727 86.67823242 -24.125 87.375 C-25.40375 89.56125 -26.6825 91.7475 -28 94 C-36.25 94 -44.5 94 -53 94 C-49.0210102 86.67153222 -44.98603735 79.38010705 -40.875 72.125 C-40.31586914 71.13685303 -39.75673828 70.14870605 -39.18066406 69.13061523 C-34.88757541 61.55006435 -30.56787579 53.9848999 -26.23974609 46.42431641 C-22.9495878 40.67335075 -19.68926705 34.90656885 -16.45019531 29.12670898 C-12.63972989 22.33726253 -8.76887102 15.58239744 -4.89648438 8.828125 C-4.15881836 7.54035156 -4.15881836 7.54035156 -3.40625 6.2265625 C-2.96603516 5.45908691 -2.52582031 4.69161133 -2.07226562 3.90087891 C-1.34886667 2.6184599 -0.65846861 1.31693722 0 0 Z " fill="#021E4D" transform="translate(258,665)"/>
<path d="M0 0 C7.26 0 14.52 0 22 0 C22 12.54 22 25.08 22 38 C43.12 38 64.24 38 86 38 C86 25.46 86 12.92 86 0 C93.26 0 100.52 0 108 0 C108 31.02 108 62.04 108 94 C100.74 94 93.48 94 86 94 C86 81.46 86 68.92 86 56 C64.88 56 43.76 56 22 56 C22 68.54 22 81.08 22 94 C14.74 94 7.48 94 0 94 C0 62.98 0 31.96 0 0 Z " fill="#011D4D" transform="translate(573,665)"/>
<path d="M0 0 C7.26 0 14.52 0 22 0 C22 25.41 22 50.82 22 77 C43.12 77 64.24 77 86 77 C86 82.61 86 88.22 86 94 C57.62 94 29.24 94 0 94 C0 62.98 0 31.96 0 0 Z " fill="#001B49" transform="translate(348,665)"/>
<path d="M0 0 C0.99 0.33 1.98 0.66 3 1 C3 43.9 3 86.8 3 131 C6.465 130.01 6.465 130.01 10 129 C6.28643733 133.22278029 1.2065341 135.14912227 -4 137 C-9.78053808 137.23594033 -15.00134052 133.67714767 -20 131 C-19.34 130.67 -18.68 130.34 -18 130 C-18.00222061 129.3231868 -18.00444122 128.6463736 -18.00672913 127.9490509 C-18.03394032 119.23688029 -18.0518894 110.52470546 -18.0625 101.8125 C-18.06335602 101.11463127 -18.06421204 100.41676254 -18.06509399 99.69774628 C-18.0927888 74.12038922 -17.74580296 48.56755361 -17 23 C-18.08821045 23.62487305 -19.1764209 24.24974609 -20.29760742 24.89355469 C-23.58674614 26.78224647 -26.92371664 28.54484344 -30.3125 30.25 C-31.33988281 30.77078125 -32.36726563 31.2915625 -33.42578125 31.828125 C-36 33 -36 33 -38 33 C-38 33.66 -38 34.32 -38 35 C-40.475 35.495 -40.475 35.495 -43 36 C-43.29030388 32.61957258 -43.43538514 29.37158007 -43 26 C-40.6875 23.5625 -40.6875 23.5625 -38 22 C-37.55527344 21.51015625 -37.11054688 21.0203125 -36.65234375 20.515625 C-34.53836386 18.5765607 -32.60595158 18.03946353 -29.875 17.1875 C-25.23508686 15.57625079 -21.59622723 13.61492939 -17.6015625 10.796875 C-14.17932488 8.43316734 -10.66938518 6.23738681 -7.125 4.0625 C-6.46983398 3.64846924 -5.81466797 3.23443848 -5.13964844 2.80786133 C-3.47295619 1.79136934 -1.73938368 0.88637658 0 0 Z " fill="#002D5E" transform="translate(517,447)"/>
<path d="M0 0 C0 40.26 0 80.52 0 122 C0.66 122.33 1.32 122.66 2 123 C-0.63880733 124.47239996 -3.28494038 125.92774572 -5.9375 127.375 C-6.67291016 127.7875 -7.40832031 128.2 -8.16601562 128.625 C-8.90400391 129.02460937 -9.64199219 129.42421875 -10.40234375 129.8359375 C-11.06741943 130.20251465 -11.73249512 130.5690918 -12.41772461 130.94677734 C-14.85602592 131.94127785 -17.09392807 132.51300918 -19.66139221 133.06582642 C-20.47340371 133.24194773 -21.28541521 133.41806904 -22.12203312 133.59952736 C-22.74176219 133.73168333 -23.36149126 133.8638393 -24 134 C-24.2337434 118.45797142 -24.41001111 102.91607449 -24.51812172 87.37270164 C-24.56965783 80.15525895 -24.6398961 72.93890909 -24.75439453 65.72216797 C-24.85416148 59.43093308 -24.91860267 53.14048955 -24.94088495 46.84848559 C-24.95390964 43.51715953 -24.98970037 40.18862147 -25.05730057 36.85789108 C-25.12983745 33.13615095 -25.13989454 29.41910976 -25.13525391 25.69677734 C-25.17120667 24.59626038 -25.20715942 23.49574341 -25.24420166 22.36187744 C-25.2023891 19.26563451 -25.07651173 16.90654515 -24 14 C-21.60910139 11.88009843 -19.32567558 10.55509234 -16.44055748 9.19425392 C-14.06194781 8.03031333 -12.76846778 6.92416176 -11 5 C-9.50847973 4.0561681 -7.98499142 3.16145329 -6.4375 2.3125 C-5.65246094 1.87550781 -4.86742187 1.43851562 -4.05859375 0.98828125 C-2 0 -2 0 0 0 Z " fill="#0189A3" transform="translate(544,444)"/>
<path d="M0 0 C0.99 0 1.98 0 3 0 C3.13250542 26.27684418 2.94714268 52.53984618 2.5 78.8125 C2.48804218 79.51536385 2.47608437 80.21822769 2.46376419 80.94239044 C2.31541756 89.62837355 2.16077684 98.31423798 2 107 C-1 108 -1 108 -3.12890625 107.15136719 C-3.93199219 106.70438477 -4.73507812 106.25740234 -5.5625 105.796875 C-6.44164062 105.31089844 -7.32078125 104.82492187 -8.2265625 104.32421875 C-9.14179688 103.80472656 -10.05703125 103.28523437 -11 102.75 C-11.91523438 102.24597656 -12.83046875 101.74195313 -13.7734375 101.22265625 C-22.14086256 96.54818565 -22.14086256 96.54818565 -24 94 C-24.25131998 91.35454086 -24.3208843 88.95570154 -24.2487793 86.31567383 C-24.23480606 85.14458824 -24.23480606 85.14458824 -24.22055054 83.94984436 C-24.18616658 81.36846628 -24.13027595 78.78802216 -24.07421875 76.20703125 C-24.04618741 74.41771942 -24.01949681 72.62838612 -23.99409485 70.83903503 C-23.92361661 66.12873866 -23.83490198 61.41895453 -23.74243164 56.70904541 C-23.65129124 51.90321187 -23.57733786 47.09711756 -23.50195312 42.29101562 C-23.35148947 32.86034148 -23.18176578 23.43011911 -23 14 C-21.35 13.34 -19.7 12.68 -18 12 C-18 11.34 -18 10.68 -18 10 C-16.86820312 9.44570313 -15.73640625 8.89140625 -14.5703125 8.3203125 C-13.08843697 7.5887537 -11.60667185 6.85697122 -10.125 6.125 C-9.37863281 5.76019531 -8.63226563 5.39539063 -7.86328125 5.01953125 C-7.14785156 4.66503906 -6.43242187 4.31054688 -5.6953125 3.9453125 C-5.03547363 3.62062988 -4.37563477 3.29594727 -3.69580078 2.96142578 C-1.81965314 1.99724181 -1.81965314 1.99724181 0 0 Z " fill="#017894" transform="translate(497,470)"/>
<path d="M0 0 C0.85912363 30.67254157 1.13131781 61.31607747 1 92 C-1.00979658 91.3634765 -3.00726942 90.68809103 -5 90 C-5.62246613 89.79368958 -6.24493225 89.58737915 -6.88626099 89.37481689 C-12.22519491 87.41208055 -16.87579978 84.88736271 -20 80 C-22.41371014 71.10671731 -21.48441461 61.5429788 -21.02996826 52.42675781 C-20.87533005 48.99552476 -20.80777213 45.56263331 -20.73242188 42.12890625 C-20.56765255 35.4149505 -20.31721159 28.70838972 -20 22 C-21.15757812 22.55429687 -22.31515625 23.10859375 -23.5078125 23.6796875 C-25.04678878 24.41163964 -26.58585612 25.14340036 -28.125 25.875 C-28.88554687 26.23980469 -29.64609375 26.60460937 -30.4296875 26.98046875 C-31.17734375 27.33496094 -31.925 27.68945312 -32.6953125 28.0546875 C-33.37609863 28.37937012 -34.05688477 28.70405273 -34.75830078 29.03857422 C-37.44116819 30.18920936 -40.23060207 31.07686736 -43 32 C-43 27.71 -43 23.42 -43 19 C-38.51145213 16.97291387 -34.04076226 15.00064643 -29.4375 13.25 C-24.72647507 11.39077475 -20.21405692 9.20052153 -15.6875 6.9375 C-15.00550537 6.59686523 -14.32351074 6.25623047 -13.62084961 5.90527344 C-10.73401244 4.44604776 -7.95286441 2.97053202 -5.20703125 1.25390625 C-3 0 -3 0 0 0 Z " fill="#00204F" transform="translate(473,472)"/>
<path d="M0 0 C0.495 7.92 0.495 7.92 1 16 C1.99 16 2.98 16 4 16 C3.8863485 18.62594784 3.75960946 21.25011547 3.625 23.875 C3.5940625 24.62136719 3.563125 25.36773437 3.53125 26.13671875 C3.2265625 31.7734375 3.2265625 31.7734375 1 34 C0.47812684 36.13894897 0.47812684 36.13894897 0.21875 38.61328125 C0.09886719 39.53173828 -0.02101563 40.45019531 -0.14453125 41.39648438 C-0.26183594 42.35876953 -0.37914062 43.32105469 -0.5 44.3125 C-0.73353782 46.20518284 -0.97294294 48.09715271 -1.21875 49.98828125 C-1.32123047 50.82915283 -1.42371094 51.67002441 -1.52929688 52.53637695 C-2.04037057 55.21129639 -2.94963661 57.4932222 -4 60 C-4.46694713 62.03513376 -4.90252278 64.07762908 -5.3125 66.125 C-6.51843747 71.52444868 -8.25805995 76.14306292 -10.671875 81.1015625 C-12.70235704 85.53279096 -14.22203788 90.12660142 -15.7890625 94.73828125 C-16.98618025 97.96277582 -18.40604923 100.95490907 -20 104 C-20.66 103.67 -21.32 103.34 -22 103 C-22.15438328 92.87247777 -22.30255728 82.74488509 -22.4429636 72.61715889 C-22.50836246 67.91366756 -22.5758414 63.21022585 -22.64819336 58.50683594 C-22.71803287 53.96166867 -22.78225255 49.41645256 -22.84269524 44.87115097 C-22.8666363 43.14333119 -22.89254892 41.41553748 -22.92053413 39.68777847 C-23.30520051 15.72747126 -23.30520051 15.72747126 -19.875 11.1875 C-17.16815819 9.12794645 -14.43909229 7.12623049 -11.63671875 5.19921875 C-9.81133317 3.92568294 -9.81133317 3.92568294 -7.75 1.75 C-5.01968081 -0.98031919 -3.65243292 -1.21747764 0 0 Z " fill="#00ACC9" transform="translate(665,342)"/>
<path d="M0 0 C6.58405375 -0.06895634 13.16684912 -0.12866604 19.75097656 -0.16479492 C21.98962658 -0.17985964 24.22824719 -0.20031533 26.46679688 -0.22631836 C29.68887602 -0.26280283 32.91056411 -0.27974983 36.1328125 -0.29296875 C37.62846237 -0.31619453 37.62846237 -0.31619453 39.15432739 -0.33988953 C45.83502206 -0.34149906 50.18806807 0.55805911 55.375 5.0625 C57.76329069 9.37979471 57.74344692 13.17533925 57 18 C54.80976258 22.9280342 52.03162085 24.92815759 47.35058594 27.1751709 C43.07984372 28.67378978 38.85426209 28.48868659 34.375 28.390625 C33.38749756 28.38496521 32.39999512 28.37930542 31.38256836 28.37347412 C28.25453482 28.35123369 25.12768239 28.30106027 22 28.25 C19.86850622 28.22991907 17.73699434 28.2116711 15.60546875 28.1953125 C10.40283405 28.15482507 5.20272581 28.07651067 0 28 C0 18.76 0 9.52 0 0 Z " fill="#FAFAFB" transform="translate(474,683)"/>
<path d="M0 0 C3.78667904 3.51115397 4.68712969 5.99533837 6 11 C7.08469383 13.5852557 8.34833696 16.06749862 9.625 18.5625 C9.97183838 19.26737549 10.31867676 19.97225098 10.67602539 20.69848633 C12.35918633 24.06064478 14.05599691 27.07729693 16.26953125 30.1328125 C23.88865682 40.86822906 24.85208878 53.95042653 23.71044922 66.82861328 C22.38147043 72.76106501 18.94400247 75.65503699 14.00366211 78.85595703 C12.75094258 79.57367206 11.48042968 80.26208175 10.1875 80.90454102 C7.04987094 82.47580682 4.03931601 84.24632014 1 86 C0.13689712 57.32707948 -0.13079881 28.68518563 0 0 Z " fill="#0186A2" transform="translate(565,467)"/>
<path d="M0 0 C2.825625 -0.04125 5.65125 -0.0825 8.5625 -0.125 C9.43849854 -0.14320801 10.31449707 -0.16141602 11.21704102 -0.18017578 C18.83295235 -0.23350006 24.91673822 1.16104177 31 6 C34.95521972 11.43608398 34.61671766 16.51565428 34 23 C32.45418186 28.31374984 29.60323377 30.29980879 25.03515625 33.01953125 C21.509397 34.7181216 18.34335155 35.12394156 14.453125 35.09765625 C13.69161133 35.09515869 12.93009766 35.09266113 12.14550781 35.09008789 C11.18999023 35.08098389 10.23447266 35.07187988 9.25 35.0625 C4.67125 35.0315625 4.67125 35.0315625 0 35 C0 23.45 0 11.9 0 0 Z " fill="#BA7F16" transform="translate(325,790)"/>
<path d="M0 0 C0 18.81 0 37.62 0 57 C-5.17163505 54.93134598 -5.17163505 54.93134598 -7 51 C-9.21891267 48.93466531 -9.21891267 48.93466531 -11.8125 47 C-12.66457031 46.34 -13.51664062 45.68 -14.39453125 45 C-16.95630912 42.98243624 -16.95630912 42.98243624 -19.61865234 41.28222656 C-22 39 -22 39 -22.65942383 35.97558594 C-22.6829895 34.24743652 -22.6829895 34.24743652 -22.70703125 32.484375 C-22.73603516 31.23398437 -22.76503906 29.98359375 -22.79492188 28.6953125 C-22.80072266 27.39335938 -22.80652344 26.09140625 -22.8125 24.75 C-22.83763672 23.43257812 -22.86277344 22.11515625 -22.88867188 20.7578125 C-22.9476013 17.50490844 -22.98384097 14.25335205 -23 11 C-18.32635958 8.01093105 -13.65133861 5.17907658 -8.6875 2.6875 C-7.17736328 1.91986328 -7.17736328 1.91986328 -5.63671875 1.13671875 C-3 0 -3 0 0 0 Z " fill="#016888" transform="translate(453,494)"/>
<path d="M0 0 C3.3 -0.061875 6.6 -0.12375 10 -0.1875 C11.53527344 -0.22846802 11.53527344 -0.22846802 13.1015625 -0.27026367 C19.74393212 -0.33002958 25.64782854 0.27636069 31 4.625 C32.59481975 8.4126969 32.77453129 11.96956864 32 16 C29.75 19.0625 29.75 19.0625 27 21 C25.68 21 24.36 21 23 21 C27.57156336 26.32445686 27.57156336 26.32445686 32.4375 31.375 C34 33 34 33 34 35 C28.43648449 35.97140747 28.43648449 35.97140747 25 35 C22.44596635 32.34277307 20.38690458 29.49302038 18.21875 26.515625 C15.86383567 23.8456165 14.90754641 23.1790542 11.4375 22.8125 C10.303125 22.874375 9.16875 22.93625 8 23 C8 26.96 8 30.92 8 35 C5.36 35 2.72 35 0 35 C0 23.45 0 11.9 0 0 Z " fill="#BB821A" transform="translate(732,790)"/>
<path d="M0 0 C2.64 0 5.28 0 8 0 C9.14982806 2.91510752 10.29415488 5.83234434 11.4375 8.75 C11.76298828 9.575 12.08847656 10.4 12.42382812 11.25 C12.73642578 12.04921875 13.04902344 12.8484375 13.37109375 13.671875 C13.65911865 14.4050293 13.94714355 15.13818359 14.24389648 15.89355469 C14.96864625 17.9126509 15.5189991 19.91084587 16 22 C16.96277259 19.64756508 17.92028498 17.29320381 18.875 14.9375 C19.14441406 14.28072266 19.41382813 13.62394531 19.69140625 12.94726562 C21.41389523 8.68305509 22.80982981 4.44291687 24 0 C26.31 0 28.62 0 31 0 C34.34844514 7.49413913 37.1274058 14.79761448 38 23 C38.66 23 39.32 23 40 23 C40.103125 22.00742187 40.20625 21.01484375 40.3125 19.9921875 C40.91838285 15.75740773 42.35424368 12.05307877 44 8.125 C44.27328125 7.44953125 44.5465625 6.7740625 44.828125 6.078125 C46.84470663 1.15529337 46.84470663 1.15529337 48 0 C50.67058851 -0.14115161 53.32432238 -0.04247107 56 0 C51.80387723 11.05516962 47.40986018 22.02876754 43 33 C40.36 33 37.72 33 35 33 C32.69 27.06 30.38 21.12 28 15 C24.60320493 21.66598362 24.60320493 21.66598362 22.3125 28.4375 C21.09033613 32.90966387 21.09033613 32.90966387 20 34 C17.32941149 34.14115161 14.67567762 34.04247107 12 34 C11.62488281 32.91203125 11.24976563 31.8240625 10.86328125 30.703125 C8.13786798 22.85894704 5.33672059 15.11878451 1.98046875 7.515625 C1.0052401 5.01344472 0.44223196 2.64388138 0 0 Z " fill="#B67A10" transform="translate(478,791)"/>
<path d="M0 0 C6.0328125 -0.0928125 6.0328125 -0.0928125 12.1875 -0.1875 C14.07698364 -0.22846802 14.07698364 -0.22846802 16.00463867 -0.27026367 C17.50861206 -0.28150269 17.50861206 -0.28150269 19.04296875 -0.29296875 C20.06414795 -0.3086792 21.08532715 -0.32438965 22.13745117 -0.34057617 C25.45589588 0.05424092 27.30410939 1.06364105 30 3 C32.32487188 5.98912099 32.47409442 9.29989973 32.390625 13.03515625 C31.72156148 16.40054573 29.60017609 17.94404681 27 20 C26.01 20.66 25.02 21.32 24 22 C25.2878331 23.48250555 26.58039064 24.96090818 27.875 26.4375 C28.59429688 27.26121094 29.31359375 28.08492187 30.0546875 28.93359375 C31.83238745 31.05982155 31.83238745 31.05982155 34 32 C34 32.66 34 33.32 34 34 C30.48385299 34.64846974 27.49582082 34.83186671 24 34 C20.6910863 31.08223584 18.22972482 27.79925179 16 24 C16 23.34 16 22.68 16 22 C13.03 22 10.06 22 7 22 C7 25.63 7 29.26 7 33 C4.69 33 2.38 33 0 33 C0 22.11 0 11.22 0 0 Z " fill="#B77C10" transform="translate(553,791)"/>
<path d="M0 0 C3.856875 -0.061875 7.71375 -0.12375 11.6875 -0.1875 C13.4986731 -0.22846802 13.4986731 -0.22846802 15.34643555 -0.27026367 C16.308479 -0.27775635 17.27052246 -0.28524902 18.26171875 -0.29296875 C19.24100342 -0.3086792 20.22028809 -0.32438965 21.22924805 -0.34057617 C24.52251457 0.06422661 26.34115396 1.0417397 29 3 C31.4732163 6.70982446 31.54710902 9.69888142 31 14 C29.30808963 17.80679833 27.32225221 19.60440905 24 22 C24.97453125 23.04800781 24.97453125 23.04800781 25.96875 24.1171875 C26.8040625 25.02726563 27.639375 25.93734375 28.5 26.875 C29.3353125 27.77992188 30.170625 28.68484375 31.03125 29.6171875 C33 32 33 32 33 34 C29.80328667 34.66598194 27.17836536 34.82275097 24 34 C20.75007222 31.05425265 18.25858988 27.75405947 16 24 C16 23.34 16 22.68 16 22 C13.03 22 10.06 22 7 22 C7 25.96 7 29.92 7 34 C4.69 34 2.38 34 0 34 C0 22.78 0 11.56 0 0 Z " fill="#B87C10" transform="translate(429,791)"/>
<path d="M0 0 C7 0 7 0 9.40625 1.90625 C10.0971875 2.7621875 10.788125 3.618125 11.5 4.5 C12.25539063 5.40878906 13.01078125 6.31757812 13.7890625 7.25390625 C14.51867187 8.16011719 15.24828125 9.06632813 16 10 C17.28451796 11.48537888 18.57546467 12.96524162 19.875 14.4375 C20.40867187 15.05496094 20.94234375 15.67242188 21.4921875 16.30859375 C22.93531804 17.92744226 24.46649157 19.46649157 26 21 C26.33 14.07 26.66 7.14 27 0 C29.64 0 32.28 0 35 0 C35 11.55 35 23.1 35 35 C28 35 28 35 25.15625 32.65625 C24.25071886 31.62142858 23.36586121 30.56823517 22.5 29.5 C22.03223145 28.95625732 21.56446289 28.41251465 21.08251953 27.85229492 C20.14469305 26.75934774 19.21497472 25.65938515 18.29394531 24.55224609 C16.52927549 22.43530822 14.70167332 20.3759643 12.875 18.3125 C12.33617187 17.68988281 11.79734375 17.06726563 11.2421875 16.42578125 C10.51888012 15.59556994 9.7785963 14.7785963 9 14 C8.67 20.93 8.34 27.86 8 35 C5.36 35 2.72 35 0 35 C0 23.45 0 11.9 0 0 Z " fill="#B77F19" transform="translate(268,790)"/>
<path d="M0 0 C2.3676551 3.55148265 2.34061254 4.81246931 2 9 C1.33788983 11.44220964 0.58011525 13.85966813 -0.25 16.25 C-0.59115845 17.24169189 -0.59115845 17.24169189 -0.93920898 18.25341797 C-2.49504471 22.72433548 -4.22651478 27.10386305 -6.03515625 31.4765625 C-7.54483678 35.42495773 -8.70317719 39.47172099 -9.875 43.53125 C-10.74664718 46.21882881 -11.69868141 48.74439645 -12.77734375 51.34765625 C-14.61676818 55.87081711 -16.18299982 60.44897229 -17.69140625 65.08984375 C-17.92507904 65.80665314 -18.15875183 66.52346252 -18.39950562 67.26199341 C-19.37034022 70.24735224 -20.33745456 73.23381034 -21.29370117 76.22387695 C-22.00153414 78.43190741 -22.72059709 80.63602105 -23.44140625 82.83984375 C-23.7602755 83.85231422 -23.7602755 83.85231422 -24.08558655 84.88523865 C-25.19973871 88.26486334 -26.1561279 90.76645425 -29 93 C-32.7441867 86.87314903 -35.21440518 80.95365789 -37 74 C-36.34 74 -35.68 74 -35 74 C-34.01 77.3 -33.02 80.6 -32 84 C-31.01 83.505 -31.01 83.505 -30 83 C-30.17789063 81.49759766 -30.17789063 81.49759766 -30.359375 79.96484375 C-31.14166188 72.38399794 -31.55736597 67.40494677 -27 61 C-26.30784829 59.28884715 -25.66620814 57.55682065 -25.0625 55.8125 C-22.94826205 49.76710085 -20.49722679 43.89559353 -18 38 C-17.20683941 36.10479119 -16.41518762 34.20895028 -15.625 32.3125 C-15.21378906 31.3328125 -14.80257812 30.353125 -14.37890625 29.34375 C-13.34235188 26.83017907 -12.33254765 24.31204967 -11.33984375 21.78125 C-8.24699789 13.96729362 -5.20918043 6.69751769 0 0 Z " fill="#B17108" transform="translate(732,235)"/>
<path d="M0 0 C2.7159413 3.37474836 4.73932703 7.03340394 6.7578125 10.84765625 C7.1063327 11.50076279 7.45485291 12.15386932 7.81393433 12.82676697 C8.54668849 14.20176222 9.27778806 15.57764036 10.00732422 16.9543457 C11.124253 19.06109101 12.24726329 21.16450789 13.37109375 23.26757812 C14.08369622 24.60657777 14.79594794 25.94576416 15.5078125 27.28515625 C15.84322052 27.91333755 16.17862854 28.54151886 16.52420044 29.18873596 C17.89068731 31.77360237 19.07317041 34.21951122 20 37 C7.13 37 -5.74 37 -19 37 C-17.42739398 32.28218195 -15.67926138 28.21147866 -13.33984375 23.88671875 C-12.81494102 22.90418877 -12.81494102 22.90418877 -12.2794342 21.90180969 C-11.5445289 20.52833053 -10.80738715 19.15604589 -10.06811523 17.78491211 C-8.93289616 15.67895938 -7.80476843 13.56932688 -6.67773438 11.45898438 C-5.96134517 10.12217729 -5.24456234 8.78558104 -4.52734375 7.44921875 C-4.18879868 6.81698898 -3.8502536 6.18475922 -3.50144958 5.53337097 C-1.1167545 1.1167545 -1.1167545 1.1167545 0 0 Z " fill="#F4F6F8" transform="translate(270,685)"/>
<path d="M0 0 C2.43735715 3.05895587 4.24853317 6.20577465 6.03125 9.68359375 C6.59457031 10.77607422 7.15789063 11.86855469 7.73828125 12.99414062 C8.61033203 14.69860352 8.61033203 14.69860352 9.5 16.4375 C10.65480626 18.68693968 11.81100672 20.93566429 12.96875 23.18359375 C13.47857422 24.17931396 13.98839844 25.17503418 14.51367188 26.20092773 C15.9653908 29.0192062 15.9653908 29.0192062 17.68945312 31.67602539 C19 34 19 34 19 37 C6.13 37 -6.74 37 -20 37 C-18.26075042 32.65187606 -16.25329529 28.73011935 -13.9375 24.6875 C-13.13532219 23.27479322 -12.33324193 21.86203105 -11.53125 20.44921875 C-11.11746094 19.7226709 -10.70367188 18.99612305 -10.27734375 18.24755859 C-8.15082139 14.5058222 -6.04512842 10.75240013 -3.9375 7 C-3.1758774 5.64577925 -2.41416767 4.29160751 -1.65234375 2.9375 C-1.10707031 1.968125 -0.56179688 0.99875 0 0 Z " fill="#F4F5F7" transform="translate(758,685)"/>
<path d="M0 0 C3.27286682 2.7819368 4.96427697 6.27954067 7 10 C-2.77587269 17.84270172 -12.78556577 25.30001179 -22.99414062 32.56982422 C-24.76627559 33.83335472 -26.53261949 35.10441427 -28.296875 36.37890625 C-29.18890625 37.01699219 -30.0809375 37.65507812 -31 38.3125 C-31.7425 38.84488281 -32.485 39.37726563 -33.25 39.92578125 C-35 41 -35 41 -37 41 C-38.2890625 39.35546875 -38.2890625 39.35546875 -39.625 37.1875 C-40.07101562 36.47980469 -40.51703125 35.77210938 -40.9765625 35.04296875 C-42 33 -42 33 -42 30 C-40.04296875 28.44921875 -40.04296875 28.44921875 -37.1875 26.6875 C-31.43524511 23.00033188 -25.92262084 19.07356451 -20.4375 15 C-19.6213623 14.39486572 -18.80522461 13.78973145 -17.96435547 13.16625977 C-16.37331395 11.98603177 -14.78264355 10.80530326 -13.19238281 9.62402344 C-8.81832345 6.38390731 -4.40995747 3.19102541 0 0 Z " fill="#AEB0B1" transform="translate(599,391)"/>
<path d="M0 0 C9.24 0 18.48 0 28 0 C28 2.31 28 4.62 28 7 C21.07 7 14.14 7 7 7 C7 9.31 7 11.62 7 14 C12.28 14 17.56 14 23 14 C23 15.98 23 17.96 23 20 C17.72 20 12.44 20 7 20 C7 22.97 7 25.94 7 29 C13.93 29 20.86 29 28 29 C28 30.98 28 32.96 28 35 C18.76 35 9.52 35 0 35 C0 23.45 0 11.9 0 0 Z " fill="#B98019" transform="translate(380,790)"/>
<path d="M0 0 C1.6796875 1.046875 1.6796875 1.046875 2.421875 3.15625 C2.50695312 3.78015625 2.59203125 4.4040625 2.6796875 5.046875 C0.9296875 6.171875 0.9296875 6.171875 -1.3203125 7.046875 C-1.91070313 6.73878906 -2.50109375 6.43070313 -3.109375 6.11328125 C-5.86703579 4.78317278 -7.89771825 4.81419503 -10.9453125 4.859375 C-11.90695312 4.86582031 -12.86859375 4.87226562 -13.859375 4.87890625 C-16.32441701 4.8883985 -16.32441701 4.8883985 -18.3203125 6.046875 C-18.3203125 7.366875 -18.3203125 8.686875 -18.3203125 10.046875 C-17.71445312 10.15644531 -17.10859375 10.26601563 -16.484375 10.37890625 C0.16166093 13.52884843 0.16166093 13.52884843 3.6796875 17.046875 C4.36028977 21.58949945 4.60860748 25.71984645 1.9296875 29.546875 C-2.82698589 32.71799059 -6.47434245 33.41137781 -12.1953125 33.421875 C-12.89011719 33.44636719 -13.58492187 33.47085938 -14.30078125 33.49609375 C-19.42750362 33.52505828 -22.49631721 32.46329712 -26.3203125 29.046875 C-26.3203125 25.046875 -26.3203125 25.046875 -25.3203125 23.046875 C-20.5703125 24.921875 -20.5703125 24.921875 -18.3203125 26.046875 C-16.50989457 26.14320397 -14.69578497 26.17669033 -12.8828125 26.171875 C-11.91472656 26.17445313 -10.94664062 26.17703125 -9.94921875 26.1796875 C-7.21013421 26.15901473 -7.21013421 26.15901473 -4.3203125 25.046875 C-4.8153125 22.571875 -4.8153125 22.571875 -5.3203125 20.046875 C-6.24972656 19.97210937 -7.17914062 19.89734375 -8.13671875 19.8203125 C-20.75893082 18.47780402 -20.75893082 18.47780402 -25.23046875 13.82421875 C-26.86534785 11.15801807 -27.22423699 9.04489903 -26.95703125 5.9453125 C-23.23506309 -5.15208951 -8.50918881 -2.72536296 0 0 Z " fill="#B67A11" transform="translate(810.3203125,791.953125)"/>
<path d="M0 0 C9.24 0 18.48 0 28 0 C28 1.98 28 3.96 28 6 C21.07 6 14.14 6 7 6 C7 8.31 7 10.62 7 13 C12.28 13 17.56 13 23 13 C23 14.98 23 16.96 23 19 C17.72 19 12.44 19 7 19 C7 21.64 7 24.28 7 27 C13.93 27 20.86 27 28 27 C28 28.98 28 30.96 28 33 C18.76 33 9.52 33 0 33 C0 22.11 0 11.22 0 0 Z " fill="#B77B13" transform="translate(684,791)"/>
<path d="M0 0 C2.31 0 4.62 0 7 0 C7.08751413 3.87485635 7.14056435 7.74945643 7.1875 11.625 C7.21263672 12.71941406 7.23777344 13.81382812 7.26367188 14.94140625 C7.35657251 25.16047621 7.35657251 25.16047621 4 30 C-1.84011246 35.40210403 -6.90771588 35.34067885 -14.6015625 35.28515625 C-19.96840011 34.83483539 -22.01374569 33.15055789 -25.6262207 29.23925781 C-27.42353354 26.30964109 -27.34327638 24.34279411 -27.29296875 20.921875 C-27.2784668 19.18164062 -27.2784668 19.18164062 -27.26367188 17.40625 C-27.23853516 16.1996875 -27.21339844 14.993125 -27.1875 13.75 C-27.17396484 12.52796875 -27.16042969 11.3059375 -27.14648438 10.046875 C-27.1111398 7.03080502 -27.0617956 4.01562513 -27 1 C-24.69 1 -22.38 1 -20 1 C-19.98018066 1.64549805 -19.96036133 2.29099609 -19.93994141 2.95605469 C-19.84453672 5.88777221 -19.73492029 8.81879232 -19.625 11.75 C-19.5940625 12.76578125 -19.563125 13.7815625 -19.53125 14.828125 C-19.49257812 15.8078125 -19.45390625 16.7875 -19.4140625 17.796875 C-19.3826416 18.69760742 -19.3512207 19.59833984 -19.31884766 20.52636719 C-18.98399965 23.12413135 -18.3957016 24.79391103 -17 27 C-14.54617866 28.22691067 -12.80015897 28.20175931 -10.0625 28.25 C-9.18722656 28.27578125 -8.31195313 28.3015625 -7.41015625 28.328125 C-4.95987325 28.19527036 -4.95987325 28.19527036 -3.24609375 26.671875 C-0.9456054 23.58532637 -0.83397628 20.61112817 -0.68359375 16.89453125 C-0.64169922 15.91162109 -0.59980469 14.92871094 -0.55664062 13.91601562 C-0.51732422 12.89185547 -0.47800781 11.86769531 -0.4375 10.8125 C-0.39431641 9.77673828 -0.35113281 8.74097656 -0.30664062 7.67382812 C-0.20055634 5.1160181 -0.09849854 2.55811155 0 0 Z " fill="#B6780F" transform="translate(239,790)"/>
<path d="M0 0 C0.66 0.66 1.32 1.32 2 2 C2.53625 2.495 3.0725 2.99 3.625 3.5 C5 5 5 5 5 7 C3.3828125 8.4453125 3.3828125 8.4453125 1.125 10.125 C0.3 10.74890625 -0.525 11.3728125 -1.375 12.015625 C-2.24125 12.67046875 -3.1075 13.3253125 -4 14 C-11.07287575 19.5766905 -18.03699272 25.28725646 -25 31 C-27.06198172 32.68813434 -29.12476368 34.37528748 -31.1875 36.0625 C-32.10917969 36.81660156 -33.03085937 37.57070313 -33.98046875 38.34765625 C-34.64691406 38.89292969 -35.31335938 39.43820312 -36 40 C-39.2843893 37.01000974 -40.38083305 34.08646897 -42 30 C-38.67336702 27.32489652 -35.33829609 24.66053358 -32 22 C-31.20505127 21.36578125 -31.20505127 21.36578125 -30.39404297 20.71875 C-23.6102296 15.31581953 -16.76333507 9.99919808 -9.8125 4.8125 C-9.17675049 4.33063232 -8.54100098 3.84876465 -7.88598633 3.35229492 C-3.34850562 0 -3.34850562 0 0 0 Z " fill="#CFD2D2" transform="translate(567,331)"/>
<path d="M0 0 C0.33 0 0.66 0 1 0 C1.08975098 0.54938232 1.17950195 1.09876465 1.27197266 1.66479492 C1.69741776 4.17746417 2.16076361 6.68172014 2.625 9.1875 C2.76550781 10.05181641 2.90601563 10.91613281 3.05078125 11.80664062 C3.83912462 15.92179301 4.52231857 19.10537858 7.6875 22 C11.31191076 24.18832348 14.2192849 25.06760767 18.375 25.8125 C19.62023437 26.04582031 20.86546875 26.27914062 22.1484375 26.51953125 C23.55996094 26.75736328 23.55996094 26.75736328 25 27 C22.19948193 28.53331532 19.76314853 29.33545867 16.625 29.875 C11.03439054 31.04469918 7.21393688 33.17909467 4 38 C3.55570562 40.04869074 3.18705805 42.11454293 2.875 44.1875 C2.70742188 45.27417969 2.53984375 46.36085937 2.3671875 47.48046875 C2.24601563 48.31191406 2.12484375 49.14335937 2 50 C1.34 50 0.68 50 0 50 C-0.17015625 49.08476562 -0.3403125 48.16953125 -0.515625 47.2265625 C-0.75796875 46.03804687 -1.0003125 44.84953125 -1.25 43.625 C-1.48203125 42.44164062 -1.7140625 41.25828125 -1.953125 40.0390625 C-2.69286471 36.89813187 -2.69286471 36.89813187 -5.109375 35.5859375 C-5.73328125 35.39257812 -6.3571875 35.19921875 -7 35 C-7 35.66 -7 36.32 -7 37 C-8.32 37.66 -9.64 38.32 -11 39 C-10.67 38.01 -10.34 37.02 -10 36 C-9.34 36 -8.68 36 -8 36 C-8.11306697 34.04105639 -8.11306697 34.04105639 -9 32 C-12.51417963 30.29311275 -15.97633313 29.52206429 -19.8125 28.875 C-20.78832031 28.70742187 -21.76414062 28.53984375 -22.76953125 28.3671875 C-23.50558594 28.24601562 -24.24164062 28.12484375 -25 28 C-25 27.67 -25 27.34 -25 27 C-23.90300781 26.75765625 -22.80601562 26.5153125 -21.67578125 26.265625 C-20.22119109 25.9277847 -18.76677281 25.58920375 -17.3125 25.25 C-16.2306543 25.01410156 -16.2306543 25.01410156 -15.12695312 24.7734375 C-10.55945058 23.68891635 -7.36331494 22.46390006 -4 19 C-1.12835197 13.14547813 -0.51799449 6.42313166 0 0 Z " fill="#F6CB30" transform="translate(750,182)"/>
<path d="M0 0 C0 1.98 0 3.96 0 6 C-0.99 5.01 -0.99 5.01 -2 4 C-3.32 5.32 -4.64 6.64 -6 8 C-7.65 7.34 -9.3 6.68 -11 6 C-11 6.66 -11 7.32 -11 8 C-27.3424011 15.60053021 -43.70984177 21.91119015 -61 27 C-61.70616455 27.21495117 -62.4123291 27.42990234 -63.13989258 27.65136719 C-66.88700468 28.77308587 -70.07956336 29.19124081 -74 29 C-74 28.34 -74 27.68 -74 27 C-71.89748139 26.32815382 -69.79292237 25.66269032 -67.6875 25 C-66.51574219 24.62875 -65.34398437 24.2575 -64.13671875 23.875 C-61 23 -61 23 -58 23 C-57.7834375 21.576875 -57.7834375 21.576875 -57.5625 20.125 C-57 17 -57 17 -56 15 C-54.10839844 14.2097168 -54.10839844 14.2097168 -51.609375 13.44921875 C-50.218396 13.02334473 -50.218396 13.02334473 -48.79931641 12.58886719 C-47.79304199 12.29141602 -46.78676758 11.99396484 -45.75 11.6875 C-44.72181152 11.37844727 -43.69362305 11.06939453 -42.63427734 10.75097656 C-34.84881897 8.45026692 -27.0164684 6.45024108 -19.09277344 4.6862793 C-14.24302733 3.5966952 -9.599901 2.26869302 -4.92333984 0.57714844 C-3 0 -3 0 0 0 Z " fill="#FDE352" transform="translate(734,232)"/>
<path d="M0 0 C0.33 0 0.66 0 1 0 C1.15557373 0.93980713 1.31114746 1.87961426 1.47143555 2.84790039 C6.78187616 34.82347211 12.56941658 65.90304887 25 96 C25.27908203 96.6791748 25.55816406 97.35834961 25.84570312 98.05810547 C28.87738383 105.59322163 28.87738383 105.59322163 32.69140625 112.7421875 C34 115 34 115 33.6875 117.3125 C33.460625 117.869375 33.23375 118.42625 33 119 C31.19921875 118.875 31.19921875 118.875 29 118 C17.53045707 100.13988449 12.03438182 76.39519248 7 56 C6.70851074 54.83960205 6.70851074 54.83960205 6.41113281 53.65576172 C2.0355315 36.03499377 -0.70331562 18.1820111 0 0 Z " fill="#656E83" transform="translate(342,347)"/>
<path d="M0 0 C10.56 0 21.12 0 32 0 C32 1.98 32 3.96 32 6 C28.04 6 24.08 6 20 6 C20 15.24 20 24.48 20 34 C17.36 34 14.72 34 12 34 C12 24.76 12 15.52 12 6 C8.04 6 4.08 6 0 6 C0 4.02 0 2.04 0 0 Z " fill="#BA821A" transform="translate(633,791)"/>
<path d="M0 0 C1.98037264 3.35450876 2.32729684 6.21253641 2.6875 10.0625 C3.79598643 17.75262462 6.7390176 24.68039743 13.015625 29.5703125 C15.07705245 30.82063282 15.07705245 30.82063282 18 32 C18 32.66 18 33.32 18 34 C19.00933594 34.18369141 19.00933594 34.18369141 20.0390625 34.37109375 C22.85531872 34.96926954 25.59704385 35.72859661 28.36645508 36.51098633 C40.66924707 39.88913232 52.35496176 39.4721874 65 38 C59.5394346 41.64037693 53.46892333 41.13239068 47.125 41.0625 C46.34125 41.05798828 45.5575 41.05347656 44.75 41.04882812 C42.83329986 41.03714093 40.91663952 41.01920908 39 41 C39.495 43.475 39.495 43.475 40 46 C27.09126112 45.74823382 15.63087436 41.87058769 6.5078125 32.4609375 C1.71840803 26.93470157 -1.12143148 22.04047401 -1.1328125 14.70703125 C-1.13410156 13.91232422 -1.13539063 13.11761719 -1.13671875 12.29882812 C-1.13285156 11.47833984 -1.12898438 10.65785156 -1.125 9.8125 C-1.12886719 8.98041016 -1.13273437 8.14832031 -1.13671875 7.29101562 C-1.12667092 1.12667092 -1.12667092 1.12667092 0 0 Z " fill="#945B08" transform="translate(312,459)"/>
<path d="M0 0 C0.495 7.92 0.495 7.92 1 16 C1.99 16 2.98 16 4 16 C3.8863485 18.62594784 3.75960946 21.25011547 3.625 23.875 C3.5940625 24.62136719 3.563125 25.36773437 3.53125 26.13671875 C3.2265625 31.7734375 3.2265625 31.7734375 1 34 C0.59952556 36.32275177 0.2602896 38.65739357 0 41 C-0.33 41 -0.66 41 -1 41 C-1 27.8 -1 14.6 -1 1 C-1.66 1 -2.32 1 -3 1 C-2.87625 2.5778125 -2.87625 2.5778125 -2.75 4.1875 C-3.19280214 10.94023264 -8.08973014 14.12258593 -12.90234375 18.3515625 C-15 20 -15 20 -17.58988953 21.12275696 C-20.36047786 22.85372061 -20.36047786 22.85372061 -20.63923645 26.39787292 C-20.67148081 27.82634265 -20.67613915 29.25559035 -20.65942383 30.68432617 C-20.66990753 31.4650499 -20.68039124 32.24577362 -20.69119263 33.05015564 C-20.72000123 35.63149475 -20.71364475 38.21149732 -20.70703125 40.79296875 C-20.72014285 42.58231797 -20.73544542 44.37165238 -20.75285339 46.16096497 C-20.79277955 50.87104058 -20.80289871 55.5807297 -20.80688477 60.29095459 C-20.81620191 65.09708437 -20.85360648 69.90298568 -20.88867188 74.70898438 C-20.95332515 84.13931217 -20.98650172 93.56946998 -21 103 C-21.33 103 -21.66 103 -22 103 C-22.15438328 92.87247777 -22.30255728 82.74488509 -22.4429636 72.61715889 C-22.50836246 67.91366756 -22.5758414 63.21022585 -22.64819336 58.50683594 C-22.71803287 53.96166867 -22.78225255 49.41645256 -22.84269524 44.87115097 C-22.8666363 43.14333119 -22.89254892 41.41553748 -22.92053413 39.68777847 C-23.30520051 15.72747126 -23.30520051 15.72747126 -19.875 11.1875 C-17.16815819 9.12794645 -14.43909229 7.12623049 -11.63671875 5.19921875 C-9.81133317 3.92568294 -9.81133317 3.92568294 -7.75 1.75 C-5.01968081 -0.98031919 -3.65243292 -1.21747764 0 0 Z " fill="#007EAC" transform="translate(665,342)"/>
<path d="M0 0 C13.24210988 -0.49503214 13.24210988 -0.49503214 16.89453125 1.890625 C19.81755461 4.81907141 19.97136556 5.56332473 20.25 9.8125 C20.19430139 13.64874143 19.49416756 15.97136796 17 19 C13.48396902 21.34402065 10.39733208 21.20794664 6.25 21.125 C3.15625 21.063125 3.15625 21.063125 0 21 C0 14.07 0 7.14 0 0 Z " fill="#FBFAF5" transform="translate(332,797)"/>
<path d="M0 0 C-1.59497587 3.1089726 -3.20254334 6.21126221 -4.8125 9.3125 C-5.26431641 10.19357422 -5.71613281 11.07464844 -6.18164062 11.98242188 C-6.62314453 12.82998047 -7.06464844 13.67753906 -7.51953125 14.55078125 C-7.92276611 15.33106689 -8.32600098 16.11135254 -8.74145508 16.9152832 C-9.96924051 18.94904845 -11.24855597 20.40878973 -13 22 C-18.59184258 19.81930322 -23.20608358 17.86095541 -27 13 C-27.38875029 11.34538158 -27.7310307 9.67825636 -28 8 C-26.56720703 7.52820313 -26.56720703 7.52820313 -25.10546875 7.046875 C-23.79939161 6.61484793 -22.49340861 6.18253622 -21.1875 5.75 C-20.50985596 5.52618652 -19.83221191 5.30237305 -19.1340332 5.07177734 C-14.05951346 3.38405846 -9.05447175 1.55197548 -4.07421875 -0.3984375 C-2 -1 -2 -1 0 0 Z " fill="#4A586B" transform="translate(424,495)"/>
<path d="M0 0 C-0.26291694 5.25833878 -0.26291694 5.25833878 -2 8 C-7.0118961 10.43894409 -12.40833652 12 -18 12 C-18 12.66 -18 13.32 -18 14 C-21.52081558 14.02927632 -25.04159939 14.04689119 -28.5625 14.0625 C-29.55314453 14.07087891 -30.54378906 14.07925781 -31.56445312 14.08789062 C-36.82548699 14.10536914 -41.81764665 13.92308398 -47 13 C-43.70934015 10.80622677 -40.48905057 9.75846204 -36.75 8.625 C-36.04270752 8.40803467 -35.33541504 8.19106934 -34.60668945 7.9675293 C-8.35847961 0 -8.35847961 0 0 0 Z " fill="#F7FAD7" transform="translate(678,247)"/>
<path d="M0 0 C2.31 0 4.62 0 7 0 C5.02 0.99 5.02 0.99 3 2 C2.97418686 8.59382265 2.95694406 15.18763183 2.94506836 21.78149414 C2.94010632 24.01457201 2.93333455 26.24764675 2.92456055 28.48071289 C2.88100789 39.8684512 2.90760047 51.23592142 3.44140625 62.61328125 C3.48039536 63.44820602 3.51938446 64.2831308 3.55955505 65.14335632 C3.82342148 70.13723492 4.34588224 75.04259836 5 80 C5.16573397 82.45707191 5.31117794 84.91558688 5.4375 87.375 C6.42005481 104.33309402 8.90691652 120.89630583 12.33984375 137.51953125 C12.68825317 139.21807251 12.68825317 139.21807251 13.04370117 140.95092773 C13.5088529 143.20594087 13.98148696 145.45942554 14.4621582 147.71118164 C14.67573975 148.74235107 14.88932129 149.77352051 15.109375 150.8359375 C15.30499023 151.75938965 15.50060547 152.6828418 15.70214844 153.63427734 C16 156 16 156 15 159 C11.94276767 149.05694276 9.69530264 139.12203782 7.9375 128.875 C7.80960083 128.13811951 7.68170166 127.40123901 7.54992676 126.64202881 C0.29991439 84.6350019 -0.3604483 42.51071789 0 0 Z " fill="#0E1436" transform="translate(317,259)"/>
<path d="M0 0 C2.31 0 4.62 0 7 0 C7 10.89 7 21.78 7 33 C4.69 33 2.38 33 0 33 C0 22.11 0 11.22 0 0 Z " fill="#B47308" transform="translate(606,791)"/>
<path d="M0 0 C11.77283529 3.89125434 23.53954788 7.79917428 35.25 11.875 C36.0759668 12.16060791 36.90193359 12.44621582 37.75292969 12.74047852 C38.52024414 13.00916748 39.28755859 13.27785645 40.078125 13.5546875 C40.74231445 13.78655762 41.40650391 14.01842773 42.09082031 14.25732422 C44.13264552 15.05159945 46.05582373 15.99220913 48 17 C48 17.66 48 18.32 48 19 C40.11583017 17.64741104 32.60646666 15.45600648 25 13 C25.99 14.32 26.98 15.64 28 17 C22.87434397 16.4180032 18.82762268 13.99016714 14.375 11.5625 C13.2303125 10.95051758 13.2303125 10.95051758 12.0625 10.32617188 C8.94329869 8.64891714 5.95040923 6.96693949 3 5 C3 4.34 3 3.68 3 3 C2.01 2.67 1.02 2.34 0 2 C0 1.34 0 0.68 0 0 Z " fill="#017DC2" transform="translate(529,227)"/>
<path d="M0 0 C-1.11733729 1.50571657 -2.24410035 3.00444292 -3.375 4.5 C-4.00148438 5.3353125 -4.62796875 6.170625 -5.2734375 7.03125 C-5.84320312 7.6809375 -6.41296875 8.330625 -7 9 C-7.66 9 -8.32 9 -9 9 C-9 9.66 -9 10.32 -9 11 C-12.21978848 11.99740816 -15.44072188 12.99068175 -18.6640625 13.9765625 C-20.51609833 14.54475148 -22.36670325 15.11791518 -24.2109375 15.7109375 C-27.9002671 16.86280964 -31.14155312 17.18821692 -35 17 C-35 16.34 -35 15.68 -35 15 C-32.89748139 14.32815382 -30.79292237 13.66269032 -28.6875 13 C-27.51574219 12.62875 -26.34398437 12.2575 -25.13671875 11.875 C-22 11 -22 11 -19 11 C-18.7834375 9.576875 -18.7834375 9.576875 -18.5625 8.125 C-18 5 -18 5 -17 3 C-14.73865122 2.18163465 -12.43885583 1.46785589 -10.125 0.8125 C-8.86945312 0.44769531 -7.61390625 0.08289063 -6.3203125 -0.29296875 C-3 -1 -3 -1 0 0 Z " fill="#FDF16F" transform="translate(695,244)"/>
<path d="M0 0 C0.99 0.495 0.99 0.495 2 1 C1.278125 1.70125 0.55625 2.4025 -0.1875 3.125 C-2.10968351 5.03093971 -3.82596463 6.9992408 -5.5 9.125 C-7.89807711 11.88278868 -9.84539192 13.25666396 -13 15 C-13.556875 15.556875 -14.11375 16.11375 -14.6875 16.6875 C-15.120625 17.120625 -15.55375 17.55375 -16 18 C-16.66 18 -17.32 18 -18 18 C-18 18.66 -18 19.32 -18 20 C-19.50787161 21.37491299 -21.08539761 22.67364462 -22.6875 23.9375 C-26.01929398 26.59428118 -29.32595917 29.25774115 -32.5546875 32.0390625 C-33.13903564 32.54187744 -33.72338379 33.04469238 -34.32543945 33.56274414 C-35.47275359 34.55332049 -36.61718802 35.5472432 -37.75854492 36.54467773 C-41.77976656 40 -41.77976656 40 -44 40 C-44.33 40.99 -44.66 41.98 -45 43 C-46.8203125 44.61328125 -46.8203125 44.61328125 -49.125 46.3125 C-52.16671193 48.59257114 -55.0955998 50.91269603 -57.9375 53.4375 C-61 56 -61 56 -63 56 C-63.061875 56.61875 -63.12375 57.2375 -63.1875 57.875 C-63.455625 58.57625 -63.72375 59.2775 -64 60 C-65.6476038 60.71247732 -67.31763529 61.37400383 -69 62 C-69.99 63.0209375 -69.99 63.0209375 -71 64.0625 C-73.32902075 66.31873885 -74.82861733 66.64762415 -78 67 C-74.56677271 63.42818371 -71.04773037 60.40757711 -67.0625 57.4375 C-61.56029589 53.28353382 -56.30095732 48.90653791 -51.09204102 44.39233398 C-47.60472916 41.37141918 -44.08429828 38.40632983 -40.5 35.5 C-30.62622333 27.46758844 -21.0497986 19.13065372 -11.70703125 10.48828125 C-8.65823717 7.68585437 -5.55689497 4.95192981 -2.42578125 2.2421875 C-1.59556994 1.51888012 -0.7785963 0.7785963 0 0 Z " fill="#1A668D" transform="translate(680,309)"/>
<path d="M0 0 C2.45862401 -0.05383848 4.9160755 -0.09359038 7.375 -0.125 C8.42300781 -0.15013672 8.42300781 -0.15013672 9.4921875 -0.17578125 C11.32897486 -0.19344267 13.16601963 -0.10303261 15 0 C17 2 17 2 17.25 5 C17 8 17 8 15 10 C12.41935871 10.14497985 9.95056116 10.18677545 7.375 10.125 C6.66859375 10.11597656 5.9621875 10.10695313 5.234375 10.09765625 C3.48943902 10.07407603 1.74467705 10.03820461 0 10 C0 6.7 0 3.4 0 0 Z " fill="#F8F4EB" transform="translate(739,797)"/>
<path d="M0 0 C0.66 0 1.32 0 2 0 C2.66 2.97 3.32 5.94 4 9 C7.3 9.99 10.6 10.98 14 12 C11.81798998 14.18201002 10.88812762 14.37111375 8 15.125 C5.34369693 16.04411936 4.28780259 16.41395037 3.03125 18.97265625 C2.39988659 21.43429417 2.39988659 21.43429417 2 25 C1.34 25 0.68 25 0 25 C-0.66 22.03 -1.32 19.06 -2 16 C-6.29 15.01 -10.58 14.02 -15 13 C-15 12.67 -15 12.34 -15 12 C-14.40832031 11.98582031 -13.81664062 11.97164062 -13.20703125 11.95703125 C-8.91665336 11.6980688 -6.54900556 11.40031656 -3 8.8125 C-0.82242734 5.75028844 -0.25917923 3.71490235 0 0 Z " fill="#A9A9A9" transform="translate(674,197)"/>
<path d="M0 0 C2.45862401 -0.05383848 4.9160755 -0.09359038 7.375 -0.125 C8.42300781 -0.15013672 8.42300781 -0.15013672 9.4921875 -0.17578125 C11.32897486 -0.19344267 13.16601963 -0.10303261 15 0 C17 2 17 2 17.3125 4.4375 C17 7 17 7 15.9296875 8.6484375 C12.96601978 10.72420477 10.37053968 10.2854277 6.8125 10.1875 C5.54019531 10.16042969 4.26789062 10.13335938 2.95703125 10.10546875 C1.98121094 10.07066406 1.00539063 10.03585937 0 10 C0 6.7 0 3.4 0 0 Z " fill="#FBF9F3" transform="translate(560,797)"/>
<path d="M0 0 C2.45862401 -0.05383848 4.9160755 -0.09359038 7.375 -0.125 C8.42300781 -0.15013672 8.42300781 -0.15013672 9.4921875 -0.17578125 C11.32897486 -0.19344267 13.16601963 -0.10303261 15 0 C17 2 17 2 17.3125 4.4375 C17 7 17 7 15.9296875 8.6484375 C12.96601978 10.72420477 10.37053968 10.2854277 6.8125 10.1875 C5.54019531 10.16042969 4.26789063 10.13335938 2.95703125 10.10546875 C1.98121094 10.07066406 1.00539063 10.03585937 0 10 C0 6.7 0 3.4 0 0 Z " fill="#FAF8F0" transform="translate(436,797)"/>
<path d="M0 0 C0.33 0 0.66 0 1 0 C1.25714763 8.88689979 0.51666739 17.39605849 -0.75 26.1875 C-0.92756836 27.45166748 -1.10513672 28.71583496 -1.28808594 30.01831055 C-2.66746176 39.49515576 -4.48645754 48.76139447 -7 58 C-7.99 57.67 -8.98 57.34 -10 57 C-10.26864387 51.2433456 -9.27624853 46.42322695 -7.8125 40.875 C-4.41260636 27.39513132 -2.23514351 13.71127584 0 0 Z " fill="#E0EAF1" transform="translate(678,352)"/>
<path d="M0 0 C0.45375 0.495 0.9075 0.99 1.375 1.5 C2.87635519 3.22609337 2.87635519 3.22609337 5 3 C5.25692627 3.60996826 5.51385254 4.21993652 5.77856445 4.84838867 C6.95267872 7.62974195 8.13253047 10.40862602 9.3125 13.1875 C9.71662109 14.14720703 10.12074219 15.10691406 10.53710938 16.09570312 C11.13168945 17.49272461 11.13168945 17.49272461 11.73828125 18.91796875 C12.09962158 19.77156982 12.46096191 20.6251709 12.83325195 21.50463867 C13.97985992 24.08517336 13.97985992 24.08517336 15.66088867 26.6730957 C17 29 17 29 16.6875 31.3125 C16.460625 31.869375 16.23375 32.42625 16 33 C14.21484375 32.921875 14.21484375 32.921875 12 32 C10.6470066 29.7359305 9.59141267 27.65631371 8.5625 25.25 C8.264646 24.58057373 7.96679199 23.91114746 7.65991211 23.22143555 C6.75166272 21.15612469 5.87074458 19.08137638 5 17 C4.73445313 16.36723145 4.46890625 15.73446289 4.1953125 15.08251953 C0 4.95916559 0 4.95916559 0 0 Z " fill="#929297" transform="translate(359,433)"/>
<path d="M0 0 C2.31 0 4.62 0 7 0 C5.02 0.99 5.02 0.99 3 2 C3 24.77 3 47.54 3 71 C2.67 71 2.34 71 2 71 C-0.86690051 47.42486278 -0.19123943 23.70192131 0 0 Z " fill="#1A2043" transform="translate(317,259)"/>
<path d="M0 0 C0.495 0.99 0.495 0.99 1 2 C-12.07299597 7.04187192 -12.07299597 7.04187192 -17.8515625 9.1875 C-19.58043131 9.84132675 -21.30300904 10.51177616 -23.0234375 11.1875 C-41.60610932 18.46463023 -41.60610932 18.46463023 -46 17 C-43.76193324 14.45968432 -41.92310817 13.40064162 -38.7121582 12.37426758 C-37.85149246 12.09420364 -36.99082672 11.81413971 -36.1040802 11.52558899 C-35.17899155 11.23483994 -34.25390289 10.94409088 -33.30078125 10.64453125 C-32.35059616 10.33803146 -31.40041107 10.03153168 -30.4214325 9.71574402 C-27.38781031 8.73937271 -24.35029264 7.77580793 -21.3125 6.8125 C-19.25428784 6.15253244 -17.19634156 5.4917351 -15.13867188 4.83007812 C-10.09549275 3.21041317 -5.04905672 1.6012421 0 0 Z " fill="#0160A1" transform="translate(486,229)"/>
<path d="M0 0 C0.33 0 0.66 0 1 0 C2.14784128 8.92563938 1.82600413 17.48746194 0.95849609 26.40014648 C0.75005853 28.56189292 0.56345352 30.72476944 0.37890625 32.88867188 C-0.33857284 40.83165551 -1.52283346 48.38444162 -4 56 C-5.27399385 52.30218607 -4.79504127 49.30473755 -4.22265625 45.4765625 C-4.03896484 44.208125 -3.85527344 42.9396875 -3.66601562 41.6328125 C-3.46541591 40.29678897 -3.26423893 38.96085199 -3.0625 37.625 C-2.67304081 35.0137446 -2.29039294 32.40169929 -1.91015625 29.7890625 C-1.73621338 28.63100098 -1.56227051 27.47293945 -1.38305664 26.27978516 C-0.8839953 22.55709777 -0.8839953 22.55709777 -1 17 C-1.99 22.94 -2.98 28.88 -4 35 C-4.33 35 -4.66 35 -5 35 C-5.18343092 28.51877412 -4.4800332 22.40111777 -3.5 16 C-3.35691406 15.03449219 -3.21382812 14.06898438 -3.06640625 13.07421875 C-2.71607574 10.71532665 -2.3605065 8.35735455 -2 6 C-1.34 6 -0.68 6 0 6 C0 4.02 0 2.04 0 0 Z " fill="#0C5B98" transform="translate(679,341)"/>
<path d="M0 0 C1 2 1 2 0.4765625 3.91796875 C0.19554687 4.66691406 -0.08546875 5.41585938 -0.375 6.1875 C-2.81161394 12.68893253 -3.12353986 19.03999575 -3.0625 25.9375 C-3.05798828 26.62134766 -3.05347656 27.30519531 -3.04882812 28.00976562 C-3.0371956 29.67321604 -3.01926694 31.3366205 -3 33 C-4.98 33.495 -4.98 33.495 -7 34 C-7 29.38 -7 24.76 -7 20 C-7.66 20 -8.32 20 -9 20 C-6.86233829 12.755702 -3.77315981 6.53281715 0 0 Z " fill="#E9B018" transform="translate(322,434)"/>
<path d="M0 0 C0.33 0 0.66 0 1 0 C1.85877689 4.91055935 2.71315069 9.8218569 3.56347656 14.73388672 C3.85328612 16.40434381 4.14429182 18.07459384 4.43652344 19.74462891 C4.85667505 22.14692436 5.27250107 24.54993475 5.6875 26.953125 C5.81874268 27.69806213 5.94998535 28.44299927 6.08520508 29.21051025 C6.65774164 32.54886688 7 35.59935113 7 39 C6.34 39 5.68 39 5 39 C4.67 39.99 4.34 40.98 4 42 C-0.77553612 14.26124762 -0.77553612 14.26124762 0 0 Z " fill="#4E5A73" transform="translate(342,347)"/>
<path d="M0 0 C13.365 0.495 13.365 0.495 27 1 C24 3 24 3 21.9375 3.4375 C19.60942182 3.88776695 19.60942182 3.88776695 18 7 C19.65 7.66 21.3 8.32 23 9 C21 10 21 10 18.84521484 9.28735352 C17.97590332 8.90506592 17.1065918 8.52277832 16.2109375 8.12890625 C14.79941406 7.51499023 14.79941406 7.51499023 13.359375 6.88867188 C12.37453125 6.45103516 11.3896875 6.01339844 10.375 5.5625 C9.38242187 5.12873047 8.38984375 4.69496094 7.3671875 4.24804688 C4.90831723 3.17229113 2.45286789 2.08935634 0 1 C0 0.67 0 0.34 0 0 Z " fill="#EEDC4F" transform="translate(633,260)"/>
<path d="M0 0 C4.66710831 0.52835188 9.30343476 1.16918892 13.9375 1.9375 C14.87464844 2.09089844 15.81179688 2.24429688 16.77734375 2.40234375 C17.51082031 2.59957031 18.24429688 2.79679688 19 3 C19.495 3.99 19.495 3.99 20 5 C11.89603881 7.56921535 3.77022376 9.89257872 -4.453125 12.05078125 C-9.00026478 13.26769201 -13.50503242 14.60391595 -18 16 C-18 15.34 -18 14.68 -18 14 C-17.01 14 -16.02 14 -15 14 C-14.67 13.34 -14.34 12.68 -14 12 C-11.98828125 11.2890625 -11.98828125 11.2890625 -9.3125 10.625 C-4.62384911 9.42199089 0.03529157 8.15048271 4.6875 6.8125 C5.88761719 6.46832031 7.08773437 6.12414062 8.32421875 5.76953125 C9.20722656 5.51558594 10.09023438 5.26164063 11 5 C7.43904445 3.12498358 3.8877114 2.04669153 0 1 C0 0.67 0 0.34 0 0 Z " fill="#186DA9" transform="translate(648,244)"/>
<path d="M0 0 C0.66 0.33 1.32 0.66 2 1 C-0.62249289 4.93373934 -3.5688996 5.42031421 -7.89453125 6.69921875 C-8.6789006 6.9391304 -9.46326996 7.17904205 -10.27140808 7.42622375 C-11.93171512 7.93139204 -13.59366351 8.43119229 -15.25708008 8.92602539 C-17.7961346 9.68262337 -20.3288511 10.45803307 -22.86132812 11.23632812 C-24.47621993 11.72509164 -26.09144428 12.21275802 -27.70703125 12.69921875 C-28.46240677 12.93041916 -29.21778229 13.16161957 -29.99604797 13.39982605 C-33.75273397 14.50773562 -37.07410877 15.28487741 -41 15 C-38.1795054 13.11967026 -35.99587654 12.21186252 -32.80859375 11.16015625 C-31.78056641 10.81919922 -30.75253906 10.47824219 -29.69335938 10.12695312 C-28.61892578 9.77568359 -27.54449219 9.42441406 -26.4375 9.0625 C-24.86645508 8.54139648 -24.86645508 8.54139648 -23.26367188 8.00976562 C-17.5841781 6.13542679 -11.89431273 4.34302905 -6.14086914 2.70874023 C-3.94541323 2.04888655 -3.94541323 2.04888655 -1.84545898 0.85180664 C-1.23645752 0.57071045 -0.62745605 0.28961426 0 0 Z " fill="#024E87" transform="translate(440,244)"/>
<path d="M0 0 C0.33 0.66 0.66 1.32 1 2 C-2.18598203 6.98675448 -6.36211348 9.47141809 -12 11 C-14.28125 10.6015625 -14.28125 10.6015625 -16 10 C-15.01 10 -14.02 10 -13 10 C-12.7834375 8.576875 -12.7834375 8.576875 -12.5625 7.125 C-12 4 -12 4 -11 2 C-9.00390625 1.11328125 -9.00390625 1.11328125 -6.5625 0.3125 C-5.35787109 -0.09548828 -5.35787109 -0.09548828 -4.12890625 -0.51171875 C-2 -1 -2 -1 0 0 Z " fill="#FDFA95" transform="translate(689,245)"/>
<path d="M0 0 C0.2475 0.5775 0.495 1.155 0.75 1.75 C2.17525423 4.31545762 3.86612265 5.99948998 6 8 C6.66 8.66 7.32 9.32 8 10 C7.236875 10.4125 6.47375 10.825 5.6875 11.25 C3.0633358 12.95875809 1.69678024 14.41017753 0 17 C-0.8353125 15.576875 -0.8353125 15.576875 -1.6875 14.125 C-4.06570302 10.91121213 -5.24034426 10.04434882 -9 9 C-6.66785852 7.79371992 -4.50357861 6.8345262 -2 6 C-0.77479736 2.99152582 -0.77479736 2.99152582 0 0 Z " fill="#ABAAAA" transform="translate(754,259)"/>
<path d="M0 0 C0 16.17 0 32.34 0 49 C-0.33 49 -0.66 49 -1 49 C-1.03758423 47.2828479 -1.03758423 47.2828479 -1.07592773 45.53100586 C-1.17049578 41.26120886 -1.27059352 36.99155592 -1.37231445 32.72192383 C-1.41547728 30.87820825 -1.45716451 29.03445748 -1.49731445 27.19067383 C-1.55547166 24.5319562 -1.61903219 21.87341265 -1.68359375 19.21484375 C-1.70030624 18.39789536 -1.71701874 17.58094696 -1.73423767 16.73924255 C-1.85337785 12.07833808 -2.24423054 7.60185601 -3 3 C-4.98 4.32 -6.96 5.64 -9 7 C-9.66 6.67 -10.32 6.34 -11 6 C-9.54550599 4.9944239 -8.08627557 3.99569565 -6.625 3 C-5.40683594 2.1646875 -5.40683594 2.1646875 -4.1640625 1.3125 C-2 0 -2 0 0 0 Z " fill="#03AFC4" transform="translate(544,444)"/>
<path d="M0 0 C-4.2453474 2.8302316 -8.15652548 2.43516669 -13.1640625 2.65625 C-14.56785156 2.82640625 -14.56785156 2.82640625 -16 3 C-16.33 3.66 -16.66 4.32 -17 5 C-12.38 4.67 -7.76 4.34 -3 4 C-2.34 5.65 -1.68 7.3 -1 9 C-1.66 8.67 -2.32 8.34 -3 8 C-3 7.34 -3 6.68 -3 6 C-4.24136719 6.01160156 -5.48273438 6.02320313 -6.76171875 6.03515625 C-8.40364432 6.04453868 -10.04557153 6.0536384 -11.6875 6.0625 C-12.91243164 6.07506836 -12.91243164 6.07506836 -14.16210938 6.08789062 C-18.24499084 6.10442051 -22.01651707 6.03035098 -26 5 C-24.68 4.67 -23.36 4.34 -22 4 C-22 3.01 -22 2.02 -22 1 C-19.27093526 0.83150207 -16.54176829 0.6651397 -13.8125 0.5 C-13.04357422 0.45230469 -12.27464844 0.40460938 -11.48242188 0.35546875 C-7.648496 0.12510411 -3.84309823 -0.0616128 0 0 Z " fill="#1A1A2A" transform="translate(373,499)"/>
<path d="M0 0 C2.00495741 3.4226888 2.52916486 6.59186352 3.0625 10.5 C3.55645118 14.05971431 4.03997296 17.53370767 5 21 C4.01 20.67 3.02 20.34 2 20 C1.34 20.99 0.68 21.98 0 23 C-0.8040612 20.16821942 -1.12824903 17.64753417 -1.1328125 14.70703125 C-1.13410156 13.91232422 -1.13539063 13.11761719 -1.13671875 12.29882812 C-1.13285156 11.47833984 -1.12898438 10.65785156 -1.125 9.8125 C-1.12886719 8.98041016 -1.13273437 8.14832031 -1.13671875 7.29101562 C-1.12667092 1.12667092 -1.12667092 1.12667092 0 0 Z " fill="#AC690F" transform="translate(312,459)"/>
<path d="M0 0 C3.43982838 1.28552475 6.87642904 2.57946901 10.3125 3.875 C11.28896484 4.23980469 12.26542969 4.60460937 13.27148438 4.98046875 C14.67817383 5.51220703 14.67817383 5.51220703 16.11328125 6.0546875 C16.97735596 6.37937012 17.84143066 6.70405273 18.73168945 7.03857422 C21 8 21 8 24 10 C23.34 10 22.68 10 22 10 C22.99 11.32 23.98 12.64 25 14 C19.87434397 13.4180032 15.82762268 10.99016714 11.375 8.5625 C10.2303125 7.95051758 10.2303125 7.95051758 9.0625 7.32617188 C5.94329869 5.64891714 2.95040923 3.96693949 0 2 C0 1.34 0 0.68 0 0 Z " fill="#005AA1" transform="translate(532,230)"/>
<path d="M0 0 C0.66 0 1.32 0 2 0 C2.86928276 2.39127957 3.72051601 4.78661726 4.5625 7.1875 C4.9327832 8.19780273 4.9327832 8.19780273 5.31054688 9.22851562 C6.68624467 13.2006008 7.31172566 15.95485799 6 20 C1.64162433 16.54335723 0.05429373 12.3250768 -1 7 C-0.95423793 4.49223882 -0.57584618 2.46043366 0 0 Z " fill="#797F8E" transform="translate(356,418)"/>
<path d="M0 0 C2.43642676 3.65464013 2.07959834 5.70168967 2 10 C2.33 10.33 2.66 10.66 3 11 C3.04080783 12.99958364 3.04254356 15.00045254 3 17 C2.34 16.67 1.68 16.34 1 16 C1 20.95 1 25.9 1 31 C-4.24751265 25.75248735 -2.15009314 13.31900849 -2.23046875 6.1875 C-2 3 -2 3 0 0 Z " fill="#112247" transform="translate(342,336)"/>
<path d="M0 0 C0.33 0.99 0.66 1.98 1 3 C1.99 3 2.98 3 4 3 C3.9132428 5.62664903 3.80642019 8.24978082 3.6875 10.875 C3.66494141 11.62136719 3.64238281 12.36773437 3.61914062 13.13671875 C3.52188055 15.099604 3.26957706 17.05328322 3 19 C2.01 19.66 1.02 20.32 0 21 C0 14.07 0 7.14 0 0 Z " fill="#016AA7" transform="translate(665,355)"/>
<path d="M0 0 C0.33 0.99 0.66 1.98 1 3 C0.34 3 -0.32 3 -1 3 C-1 3.66 -1 4.32 -1 5 C4.28 5 9.56 5 15 5 C15 5.33 15 5.66 15 6 C11.47918442 6.02927632 7.95840061 6.04689119 4.4375 6.0625 C3.44685547 6.07087891 2.45621094 6.07925781 1.43554688 6.08789062 C-3.82548699 6.10536914 -8.81764665 5.92308398 -14 5 C-11.35493484 3.23662322 -9.40786033 2.3439149 -6.4375 1.375 C-5.65246094 1.11460937 -4.86742187 0.85421875 -4.05859375 0.5859375 C-2 0 -2 0 0 0 Z " fill="#F3F7BF" transform="translate(645,255)"/>
<path d="M0 0 C0.99 0.495 0.99 0.495 2 1 C2.02897435 5.27081914 2.04678996 9.54161309 2.0625 13.8125 C2.07087891 15.02744141 2.07925781 16.24238281 2.08789062 17.49414062 C2.09111328 18.65751953 2.09433594 19.82089844 2.09765625 21.01953125 C2.10289307 22.09307861 2.10812988 23.16662598 2.11352539 24.27270508 C2 27 2 27 1 30 C2.0725 29.525625 3.145 29.05125 4.25 28.5625 C6.80839865 27.46233668 9.25835017 26.54832997 12 26 C9.24865461 28.95514876 6.60266225 31.1524809 3 33 C2.01 33 1.02 33 0 33 C0 22.11 0 11.22 0 0 Z " fill="#002E5A" transform="translate(544,533)"/>
<path d="M0 0 C-0.97195313 0.66257812 -1.94390625 1.32515625 -2.9453125 2.0078125 C-5.74557373 4.34712538 -5.98258042 4.9189905 -6.8046875 8.7421875 C-6.85733749 10.1189847 -6.88015063 11.4972061 -6.875 12.875 C-6.895625 13.55691406 -6.91625 14.23882812 -6.9375 14.94140625 C-6.99138709 16.96217213 -7.00296541 18.97858084 -7 21 C-7.00241699 22.02335449 -7.00241699 22.02335449 -7.00488281 23.06738281 C-7.00736526 24.71158747 -7.00429295 26.35579907 -7 28 C-7.66 28 -8.32 28 -9 28 C-9.17421117 23.91720499 -9.28082588 19.83536319 -9.375 15.75 C-9.42527344 14.59113281 -9.47554687 13.43226563 -9.52734375 12.23828125 C-9.67156521 3.92151061 -9.67156521 3.92151061 -7.74316406 1.27539062 C-4.79988456 -0.83969335 -3.44678183 -1.14892728 0 0 Z " fill="#06A6BF" transform="translate(529,455)"/>
<path d="M0 0 C0.66 0 1.32 0 2 0 C2.99 3.3 3.98 6.6 5 10 C5.99 9.67 6.98 9.34 8 9 C8.33 9.99 8.66 10.98 9 12 C9.99 11.67 10.98 11.34 12 11 C10.25 16.75 10.25 16.75 8 19 C4.2558133 12.87314903 1.78559482 6.95365789 0 0 Z " fill="#BA8A29" transform="translate(695,309)"/>
<path d="M0 0 C0.875 2.125 0.875 2.125 1 4 C-0.75 5.125 -0.75 5.125 -3 6 C-5.25 5.125 -5.25 5.125 -7 4 C-7 3.34 -7 2.68 -7 2 C-7.66 1.67 -8.32 1.34 -9 1 C-9 0.34 -9 -0.32 -9 -1 C-5.1851221 -2.27162597 -3.6068725 -1.64661571 0 0 Z " fill="#BC8314" transform="translate(812,793)"/>
<path d="M0 0 C0.33 0 0.66 0 1 0 C1.06058594 0.65226562 1.12117188 1.30453125 1.18359375 1.9765625 C1.26738281 2.85054688 1.35117187 3.72453125 1.4375 4.625 C1.51871094 5.48351562 1.59992188 6.34203125 1.68359375 7.2265625 C1.96136331 10.03050224 1.96136331 10.03050224 2.59375 12.875 C3.07579836 16.5830643 2.65373149 19.6884978 2.0625 23.375 C1.86785156 24.62023437 1.67320312 25.86546875 1.47265625 27.1484375 C1.31667969 28.08945312 1.16070312 29.03046875 1 30 C0.67 30 0.34 30 0 30 C-0.16755938 26.04924621 -0.3281242 22.09827679 -0.48217773 18.14697266 C-0.56187238 16.14079929 -0.64712518 14.13484924 -0.73242188 12.12890625 C-0.78076172 10.87207031 -0.82910156 9.61523438 -0.87890625 8.3203125 C-0.9260376 7.15773926 -0.97316895 5.99516602 -1.02172852 4.79736328 C-1 2 -1 2 0 0 Z " fill="#08234D" transform="translate(339,300)"/>
<path d="M0 0 C0.33 0 0.66 0 1 0 C1.32417212 9.50904899 0.33418593 18.61304896 -1 28 C-1.33 28 -1.66 28 -2 28 C-3.71913436 18.31033359 -1.83811616 9.53328041 0 0 Z " fill="#B6D3E2" transform="translate(678,352)"/>
<path d="M0 0 C0.33 0 0.66 0 1 0 C1.2358396 5.77807024 0.86783046 10.51324804 -1 16 C-1.99 15.67 -2.98 15.34 -4 15 C-4.50610724 8.92671312 -3.04157942 5.22771463 0 0 Z " fill="#EFF4F7" transform="translate(672,394)"/>
<path d="M0 0 C2.5986701 2.5986701 2.63249261 4.39842758 3 8 C2.67 8.99 2.34 9.98 2 11 C1.85284801 12.62567079 1.75278133 14.25586857 1.68359375 15.88671875 C1.64169922 16.82451172 1.59980469 17.76230469 1.55664062 18.72851562 C1.51732422 19.70498047 1.47800781 20.68144531 1.4375 21.6875 C1.39431641 22.67556641 1.35113281 23.66363281 1.30664062 24.68164062 C1.20058346 27.12095546 1.09852286 29.56037113 1 32 C0.67 32 0.34 32 0 32 C0 21.44 0 10.88 0 0 Z " fill="#019AB1" transform="translate(565,467)"/>
<path d="M0 0 C0.33 0 0.66 0 1 0 C2.43794854 8.07562173 3.29599372 15.7943963 3 24 C-0.3341066 20.6658934 -0.04823249 16.43370801 -0.09765625 11.9140625 C-0.0910979 10.48434202 -0.07930405 9.05463677 -0.0625 7.625 C-0.05798828 6.88894531 -0.05347656 6.15289062 -0.04882812 5.39453125 C-0.03715142 3.59631842 -0.01922011 1.79814803 0 0 Z " fill="#4F607F" transform="translate(342,347)"/>
<path d="M0 0 C7.32627475 -0.47266289 12.37384327 0.90133798 19 4 C19 4.66 19 5.32 19 6 C12.45150687 4.83795007 6.25461856 3.26616615 0 1 C0 0.67 0 0.34 0 0 Z " fill="#006FB9" transform="translate(558,240)"/>
<path d="M0 0 C0.66 0.33 1.32 0.66 2 1 C-2.36573008 5.66490448 -6.08930559 9.37302471 -12 12 C-13.69859667 13.29241051 -15.37609523 14.61490475 -17 16 C-17 15.01 -17 14.02 -17 13 C-15.65478516 11.68139648 -15.65478516 11.68139648 -13.7890625 10.37109375 C-13.12132812 9.89349609 -12.45359375 9.41589844 -11.765625 8.92382812 C-11.05921875 8.43333984 -10.3528125 7.94285156 -9.625 7.4375 C-8.24122514 6.45838993 -6.85837194 5.47797565 -5.4765625 4.49609375 C-4.85861816 4.06482178 -4.24067383 3.6335498 -3.60400391 3.18920898 C-1.85663931 1.9545661 -1.85663931 1.9545661 0 0 Z " fill="#0E5181" transform="translate(590,384)"/>
<path d="M0 0 C0.99 0.495 0.99 0.495 2 1 C3.35201656 8.43609109 3.96561265 16.62895257 2 24 C1.67 24 1.34 24 1 24 C0.20318916 15.97497656 -0.12867289 8.06350113 0 0 Z " fill="#1F2749" transform="translate(319,330)"/>
<path d="M0 0 C-3.08566284 2.05710856 -5.36985312 2.78346093 -8.9375 3.6875 C-9.97777344 3.95949219 -11.01804687 4.23148437 -12.08984375 4.51171875 C-14.8705956 4.97828785 -16.38480882 4.93894816 -19 4 C-6.42977528 -1.53089888 -6.42977528 -1.53089888 0 0 Z " fill="#022E61" transform="translate(392,262)"/>
<path d="M0 0 C1 2 1 2 0.51171875 4.12890625 C0.10373047 5.33353516 0.10373047 5.33353516 -0.3125 6.5625 C-0.70888672 7.77099609 -0.70888672 7.77099609 -1.11328125 9.00390625 C-2 11 -2 11 -4 12 C-4.68472665 13.88764903 -4.68472665 13.88764903 -5.125 16.0625 C-5.29257812 16.79597656 -5.46015625 17.52945312 -5.6328125 18.28515625 C-5.75398438 18.85105469 -5.87515625 19.41695313 -6 20 C-6.99 20 -7.98 20 -9 20 C-6.86233829 12.755702 -3.77315981 6.53281715 0 0 Z " fill="#E4B539" transform="translate(322,434)"/>
<path d="M0 0 C0.45375 0.495 0.9075 0.99 1.375 1.5 C2.87635519 3.22609337 2.87635519 3.22609337 5 3 C5.66 5.31 6.32 7.62 7 10 C6.34 10.66 5.68 11.32 5 12 C4.34 12 3.68 12 3 12 C2.49166409 10.75336669 1.99368855 9.50250613 1.5 8.25 C1.2215625 7.55390625 0.943125 6.8578125 0.65625 6.140625 C0 4 0 4 0 0 Z " fill="#8B8D96" transform="translate(359,433)"/>
<path d="M0 0 C-3.11215447 2.07476964 -5.32939866 2.71064913 -8.9375 3.5625 C-9.97777344 3.81128906 -11.01804687 4.06007813 -12.08984375 4.31640625 C-13.53037109 4.65478516 -13.53037109 4.65478516 -15 5 C-15.70253906 5.21527344 -16.40507812 5.43054688 -17.12890625 5.65234375 C-19.36548035 6.06790762 -20.83013841 5.60119204 -23 5 C-20.1062867 4.15862957 -17.21040603 3.3266964 -14.3125 2.5 C-13.49587891 2.26152344 -12.67925781 2.02304688 -11.83789062 1.77734375 C-7.80828875 0.63535132 -4.23495153 -0.34500623 0 0 Z " fill="#0F1A43" transform="translate(351,252)"/>
<path d="M0 0 C1.91302307 3.26613695 2.35674661 5.99445248 2.625 9.75 C2.69976562 10.73484375 2.77453125 11.7196875 2.8515625 12.734375 C2.92503906 13.85585938 2.92503906 13.85585938 3 15 C2.34 15 1.68 15 1 15 C-0.32558098 10.19476896 -1.36809815 6.03067466 -1 1 C-0.67 0.67 -0.34 0.34 0 0 Z " fill="#C27C08" transform="translate(312,459)"/>
<path d="M0 0 C0.99 0 1.98 0 3 0 C3.2506019 1.41303238 3.47461921 2.83079474 3.6875 4.25 C3.81511719 5.03890625 3.94273437 5.8278125 4.07421875 6.640625 C4 9 4 9 1 13 C0.67 8.71 0.34 4.42 0 0 Z " fill="#5E6A80" transform="translate(347,386)"/>
<path d="M0 0 C0 1.98 0 3.96 0 6 C-0.66 5.34 -1.32 4.68 -2 4 C-3.32 5.32 -4.64 6.64 -6 8 C-6.66 7.34 -7.32 6.68 -8 6 C-4.61538462 0 -4.61538462 0 0 0 Z " fill="#F6CE58" transform="translate(734,232)"/>
<path d="M0 0 C0.99 0 1.98 0 3 0 C3.33 1.65 3.66 3.3 4 5 C0.04 4.67 -3.92 4.34 -8 4 C-8 3.34 -8 2.68 -8 2 C-6.865625 1.855625 -5.73125 1.71125 -4.5625 1.5625 C-1.19222799 1.38828522 -1.19222799 1.38828522 0 0 Z " fill="#835928" transform="translate(348,500)"/>
<path d="M0 0 C5.28 0.33 10.56 0.66 16 1 C16 1.33 16 1.66 16 2 C14.35 2 12.7 2 11 2 C11 2.99 11 3.98 11 5 C9.53932801 4.54917531 8.08151968 4.08906463 6.625 3.625 C5.81289063 3.36976563 5.00078125 3.11453125 4.1640625 2.8515625 C2 2 2 2 0 0 Z " fill="#DFDC63" transform="translate(633,260)"/>
<path d="M0 0 C-1.57934639 0.98558449 -3.16365173 1.96322541 -4.75 2.9375 C-6.07257813 3.75541016 -6.07257813 3.75541016 -7.421875 4.58984375 C-9.68399917 5.82715712 -11.48566325 6.53590513 -14 7 C-14.33 6.01 -14.66 5.02 -15 4 C-12.87875034 3.13656176 -10.75286928 2.28449352 -8.625 1.4375 C-6.84996094 0.72400391 -6.84996094 0.72400391 -5.0390625 -0.00390625 C-2 -1 -2 -1 0 0 Z " fill="#004C8C" transform="translate(489,231)"/>
<path d="M0 0 C-0.33 0.99 -0.66 1.98 -1 3 C-1.99 2.67 -2.98 2.34 -4 2 C-4.33 2.99 -4.66 3.98 -5 5 C-8.3 4.67 -11.6 4.34 -15 4 C-15 3.67 -15 3.34 -15 3 C-12.87562952 2.49733206 -10.75048274 1.9979439 -8.625 1.5 C-7.44164062 1.2215625 -6.25828125 0.943125 -5.0390625 0.65625 C-2 0 -2 0 0 0 Z " fill="#F7DC60" transform="translate(740,206)"/>
<path d="M0 0 C0.66 0 1.32 0 2 0 C2 5.61 2 11.22 2 17 C1.67 17 1.34 17 1 17 C0.63917123 14.35491639 0.28604648 11.70920453 -0.0625 9.0625 C-0.16626953 8.30775391 -0.27003906 7.55300781 -0.37695312 6.77539062 C-0.62665638 4.85525872 -0.81790281 2.92771856 -1 1 C-0.67 0.67 -0.34 0.34 0 0 Z " fill="#D69511" transform="translate(313,454)"/>
<path d="M0 0 C-2.4444715 3.66670726 -3.81583412 3.93344791 -8 5 C-10.875 5.125 -10.875 5.125 -13 5 C-10.83470418 2.58355702 -8.97842441 1.36405829 -5.9375 0.25 C-4.89916016 -0.14445313 -4.89916016 -0.14445313 -3.83984375 -0.546875 C-2 -1 -2 -1 0 0 Z " fill="#015493" transform="translate(442,245)"/>
<path d="M0 0 C1.625 2 1.625 2 3 4 C1.68 5.32 0.36 6.64 -1 8 C-2.32 6.35 -3.64 4.7 -5 3 C-2.25 0 -2.25 0 0 0 Z " fill="#A9A59F" transform="translate(708,216)"/>
<path d="M0 0 C0.33 0 0.66 0 1 0 C1.36463732 1.74784829 1.7163078 3.49840502 2.0625 5.25 C2.25972656 6.22453125 2.45695313 7.1990625 2.66015625 8.203125 C2.98397535 10.868119 2.85503199 12.48871723 2 15 C2 14.34 2 13.68 2 13 C1.01 13 0.02 13 -1 13 C-0.67 8.71 -0.34 4.42 0 0 Z " fill="#FBE167" transform="translate(750,182)"/>
<path d="M0 0 C0.66 0.33 1.32 0.66 2 1 C1.278125 1.70125 0.55625 2.4025 -0.1875 3.125 C-2.16932126 5.08993073 -3.94707153 7.13178456 -5.6875 9.3125 C-6.450625 10.199375 -7.21375 11.08625 -8 12 C-8.66 12 -9.32 12 -10 12 C-9.45991831 8.17723432 -7.93135626 6.72563435 -5 4.3125 C-4.278125 3.71050781 -3.55625 3.10851562 -2.8125 2.48828125 C-2.214375 1.99714844 -1.61625 1.50601562 -1 1 C-0.67 0.67 -0.34 0.34 0 0 Z " fill="#146294" transform="translate(680,309)"/>
<path d="M0 0 C4.455 1.98 4.455 1.98 9 4 C8.01 5.485 8.01 5.485 7 7 C6.67 7.66 6.34 8.32 6 9 C4.99406757 7.8803014 3.9954151 6.7540588 3 5.625 C2.443125 4.99851562 1.88625 4.37203125 1.3125 3.7265625 C0 2 0 2 0 0 Z " fill="#B6B8BB" transform="translate(402,512)"/>
<path d="M0 0 C0.99 0.99 1.98 1.98 3 3 C2.67 3.66 2.34 4.32 2 5 C1.34 5 0.68 5 0 5 C-1.32 7.64 -2.64 10.28 -4 13 C-4.66 13 -5.32 13 -6 13 C-4.31326082 8.50202887 -2.18326108 4.27113698 0 0 Z " fill="#176C9E" transform="translate(509,332)"/>
<path d="M0 0 C0.66 0 1.32 0 2 0 C1.34 1.98 0.68 3.96 0 6 C-0.66 6 -1.32 6 -2 6 C-2.33 7.32 -2.66 8.64 -3 10 C-4.65 10.33 -6.3 10.66 -8 11 C-7.38511719 10.31164062 -7.38511719 10.31164062 -6.7578125 9.609375 C-6.21898437 8.99578125 -5.68015625 8.3821875 -5.125 7.75 C-4.59132813 7.14671875 -4.05765625 6.5434375 -3.5078125 5.921875 C-2.0202513 4.02581254 -0.99677564 2.18709995 0 0 Z " fill="#2C557F" transform="translate(467,410)"/>
<path d="M0 0 C0.33 0 0.66 0 1 0 C2.31281522 6.56407612 1.52653315 10.83354621 -1 17 C-2.3357457 13.22628488 -1.72408671 10.14168653 -1.0625 6.25 C-0.86785156 5.07953125 -0.67320312 3.9090625 -0.47265625 2.703125 C-0.31667969 1.81109375 -0.16070313 0.9190625 0 0 Z " fill="#1F63A0" transform="translate(676,380)"/>
<path d="M0 0 C5.9129304 0.64270983 11.34244531 2.19003784 17 4 C12.36889009 5.47353497 8.53766824 4.44872344 4 3 C1.4375 1.375 1.4375 1.375 0 0 Z " fill="#1772BA" transform="translate(607,233)"/>
<path d="M0 0 C0.625 1.8125 0.625 1.8125 1 4 C0.01 5.485 0.01 5.485 -1 7 C-0.67 7.99 -0.34 8.98 0 10 C-1.65 10.33 -3.3 10.66 -5 11 C-3.55049545 7.2089881 -1.84827434 3.6125362 0 0 Z " fill="#A1A3A7" transform="translate(387,451)"/>
<path d="M0 0 C-1.4540625 0.99 -1.4540625 0.99 -2.9375 2 C-5.68983267 4.24719867 -6.46800363 5.78728525 -6.875 9.3125 C-6.91625 10.529375 -6.9575 11.74625 -7 13 C-7.33 13 -7.66 13 -8 13 C-8.29036665 9.61884167 -8.4327734 6.37246589 -8 3 C-4.21084337 -1.40361446 -4.21084337 -1.40361446 0 0 Z " fill="#03C1CE" transform="translate(529,455)"/>
<path d="M0 0 C0.33 0 0.66 0 1 0 C1 2.64 1 5.28 1 8 C0.34 7.34 -0.32 6.68 -1 6 C-1.66 7.98 -2.32 9.96 -3 12 C-4.41116678 8.79280276 -3.89413879 7.71609948 -2.625 4.3125 C-1 1 -1 1 0 0 Z " fill="#D2E0EA" transform="translate(673,389)"/>
<path d="M0 0 C0.66 0.33 1.32 0.66 2 1 C2 3.31 2 5.62 2 8 C1.01 8 0.02 8 -1 8 C-1.04241723 5.66705225 -1.04092937 3.33297433 -1 1 C-0.67 0.67 -0.34 0.34 0 0 Z " fill="#72798D" transform="translate(350,395)"/>
<path d="M0 0 C0.66 0.33 1.32 0.66 2 1 C-4.07439825 7.70459519 -4.07439825 7.70459519 -7.9375 8.9375 C-8.9584375 8.9684375 -8.9584375 8.9684375 -10 9 C-6.83047153 5.73991357 -3.60062011 2.77762123 0 0 Z " fill="#1C5E85" transform="translate(612,367)"/>
<path d="M0 0 C-1.26418246 0.69965443 -2.53665402 1.38434763 -3.8125 2.0625 C-4.52019531 2.44535156 -5.22789062 2.82820312 -5.95703125 3.22265625 C-8 4 -8 4 -11 3 C-7.83370093 -0.83288835 -4.68080329 -1.56026776 0 0 Z " fill="#00356D" transform="translate(470,240)"/>
<path d="M0 0 C3.63 0.33 7.26 0.66 11 1 C6.78370866 3.10814567 4.60209225 3.17700355 0 3 C0 2.01 0 1.02 0 0 Z " fill="#F1BD29" transform="translate(764,208)"/>
<path d="M0 0 C1.32 0.66 2.64 1.32 4 2 C4 2.66 4 3.32 4 4 C2.02 4.99 2.02 4.99 0 6 C-0.66 4.68 -1.32 3.36 -2 2 C-1.34 1.34 -0.68 0.68 0 0 Z " fill="#C1C0C1" transform="translate(736,286)"/>
<path d="M0 0 C0.66 0.33 1.32 0.66 2 1 C1.67 4.3 1.34 7.6 1 11 C0.34 11 -0.32 11 -1 11 C-1.14285714 3.57142857 -1.14285714 3.57142857 0 0 Z " fill="#F5CD45" transform="translate(751,221)"/>
<path d="M0 0 C0.99 0.99 1.98 1.98 3 3 C2.34 4.32 1.68 5.64 1 7 C-1.475 6.01 -1.475 6.01 -4 5 C-4 4.34 -4 3.68 -4 3 C-2.68 3 -1.36 3 0 3 C0 2.01 0 1.02 0 0 Z " fill="#C2C1C2" transform="translate(708,193)"/>
<path d="M0 0 C0.66 0.33 1.32 0.66 2 1 C0.54550599 2.0055761 -0.91372443 3.00430435 -2.375 4 C-3.59316406 4.8353125 -3.59316406 4.8353125 -4.8359375 5.6875 C-7 7 -7 7 -9 7 C-9 6.01 -9 5.02 -9 4 C-7.88625 3.525625 -6.7725 3.05125 -5.625 2.5625 C-3.73289006 1.74693537 -1.84287291 0.92143645 0 0 Z " fill="#0D1B3F" transform="translate(554,559)"/>
<path d="M0 0 C0.66 0.33 1.32 0.66 2 1 C0.93283928 2.20205464 -0.15438337 3.38632333 -1.25 4.5625 C-2.15492188 5.55443359 -2.15492188 5.55443359 -3.078125 6.56640625 C-5 8 -5 8 -7.234375 7.71484375 C-7.81703125 7.47894531 -8.3996875 7.24304688 -9 7 C-8.43410156 6.57847656 -7.86820313 6.15695312 -7.28515625 5.72265625 C-6.55167969 5.17480469 -5.81820312 4.62695312 -5.0625 4.0625 C-4.33160156 3.51722656 -3.60070312 2.97195313 -2.84765625 2.41015625 C-1.0865547 1.13092062 -1.0865547 1.13092062 0 0 Z " fill="#16567A" transform="translate(590,384)"/>
<path d="M0 0 C2.97 0.495 2.97 0.495 6 1 C4.68 2.32 3.36 3.64 2 5 C1.67 4.34 1.34 3.68 1 3 C0.34 3 -0.32 3 -1 3 C-0.67 2.01 -0.34 1.02 0 0 Z " fill="#C6C5C5" transform="translate(696,223)"/>
<path d="M0 0 C0.99 0.495 0.99 0.495 2 1 C2.82804069 3.48412207 3 5.35220307 3 8 C2.01 8.33 1.02 8.66 0 9 C0 6.03 0 3.06 0 0 Z " fill="#04224B" transform="translate(587,527)"/>
<path d="M0 0 C0.33 0.66 0.66 1.32 1 2 C1.99 2 2.98 2 4 2 C3.625 4.4375 3.625 4.4375 3 7 C2.01 7.495 2.01 7.495 1 8 C0.67 5.36 0.34 2.72 0 0 Z " fill="#6D7587" transform="translate(353,413)"/>
<path d="M0 0 C1.485 0.99 1.485 0.99 3 2 C3.375 4.5 3.375 4.5 3 7 C2.01 7.66 1.02 8.32 0 9 C0 6.03 0 3.06 0 0 Z " fill="#015D97" transform="translate(665,367)"/>
<path d="M0 0 C-0.33 0.99 -0.66 1.98 -1 3 C-4.3 3.33 -7.6 3.66 -11 4 C-7.32740617 1.55160412 -4.45351799 0 0 0 Z " fill="#296BAA" transform="translate(478,211)"/>
<path d="M0 0 C-1.98 1.32 -3.96 2.64 -6 4 C-7.32 3.34 -8.64 2.68 -10 2 C-8.71211992 1.46987262 -7.41953322 0.9511671 -6.125 0.4375 C-5.40570313 0.14746094 -4.68640625 -0.14257812 -3.9453125 -0.44140625 C-2 -1 -2 -1 0 0 Z " fill="#604721" transform="translate(452,472)"/>
<path d="M0 0 C0.66 0 1.32 0 2 0 C1.67 0.99 1.34 1.98 1 3 C0.34 3 -0.32 3 -1 3 C-1.66 4.32 -2.32 5.64 -3 7 C-3.99 7 -4.98 7 -6 7 C-5.04882866 5.8274869 -4.08882991 4.66212985 -3.125 3.5 C-2.59132813 2.8503125 -2.05765625 2.200625 -1.5078125 1.53125 C-0.76144531 0.77328125 -0.76144531 0.77328125 0 0 Z " fill="#0E3C74" transform="translate(630,501)"/>
<path d="M0 0 C0.99 0.33 1.98 0.66 3 1 C2.67 1.99 2.34 2.98 2 4 C0.02 4 -1.96 4 -4 4 C-2.68 2.68 -1.36 1.36 0 0 Z " fill="#184A6E" transform="translate(550,413)"/>
</svg>
